<svg width="975" height="482" viewBox="0 0 975 482" fill="none" xmlns="http://www.w3.org/2000/svg">
<path d="M523 267.5C525.7 267.5 528.3 268.2 530.5 269.3L524.8 260.2C522.3 256.6 517.9 252.9 513.9 252.9H438.9C434.9 252.9 430.5 256 428 260.2L422.3 269.3C424.5 268.1 427.1 267.5 429.8 267.5H523ZM536.7 281.4C535.5 274.9 529.8 269.9 523 269.9H429.9C423.1 269.9 417.4 274.9 416.2 281.4C416.1 282.2 416 283 416 283.9C416 291.6 422.3 297.8 429.9 297.8H523C530.7 297.8 536.9 291.5 536.9 283.9C536.9 283 536.8 282.2 536.7 281.4V281.4ZM436.6 284.4C436.6 286.4 435 288.1 432.9 288.1H428.6C426.6 288.1 424.9 286.5 424.9 284.4C424.9 282.4 426.5 280.7 428.6 280.7H432.9C434.9 280.8 436.6 282.4 436.6 284.4ZM453.6 284.4C453.6 286.4 452 288.1 449.9 288.1H445.6C443.6 288.1 441.9 286.5 441.9 284.4C441.9 282.4 443.5 280.7 445.6 280.7H449.9C451.9 280.8 453.6 282.4 453.6 284.4ZM489.9 286.9C488.5 286.9 487.4 285.8 487.4 284.4C487.4 283 488.5 281.9 489.9 281.9C491.3 281.9 492.4 283 492.4 284.4C492.4 285.8 491.2 286.9 489.9 286.9ZM498.3 286.9C496.9 286.9 495.8 285.8 495.8 284.4C495.8 283 496.9 281.9 498.3 281.9C499.7 281.9 500.8 283 500.8 284.4C500.8 285.8 499.7 286.9 498.3 286.9ZM506.8 286.9C505.4 286.9 504.3 285.8 504.3 284.4C504.3 283 505.4 281.9 506.8 281.9C508.2 281.9 509.3 283 509.3 284.4C509.3 285.8 508.2 286.9 506.8 286.9ZM515.3 286.9C513.9 286.9 512.8 285.8 512.8 284.4C512.8 283 513.9 281.9 515.3 281.9C516.7 281.9 517.8 283 517.8 284.4C517.8 285.8 516.6 286.9 515.3 286.9ZM523.7 286.9C522.3 286.9 521.2 285.8 521.2 284.4C521.2 283 522.3 281.9 523.7 281.9C525.1 281.9 526.2 283 526.2 284.4C526.2 285.8 525.1 286.9 523.7 286.9ZM448.2 250.5L447 201.8V201.7C446.9 200.2 445.7 199 444.2 199C442.7 199 441.5 200.2 441.4 201.7V201.8L440.2 250.5H448.2V250.5ZM512.6 250.5L511.4 201.8V201.7C511.3 200.2 510.1 199 508.6 199C507.1 199 505.9 200.2 505.8 201.7V201.8L504.6 250.5H512.6V250.5Z" fill="#434343"/>
<path d="M30.0999 262.2H26.3999V282H30.0999V262.2ZM44.7999 269.2C44.3999 268.7 43.8999 268.4 43.2999 268.1C42.6999 267.8 41.9999 267.7 41.2999 267.7C40.7999 267.7 40.3999 267.7 39.9999 267.8C39.5999 267.9 39.1999 268 38.8999 268.2C38.4999 268.4 38.1999 268.6 37.8999 268.8C37.5999 269 37.2999 269.3 36.9999 269.6L36.7999 268.5C36.6999 268.1 36.3999 267.9 35.8999 267.9H33.7999V282H37.1999V271.8C37.6999 271.3 38.0999 271 38.6999 270.7C39.1999 270.4 39.7999 270.3 40.2999 270.3C41.0999 270.3 41.6999 270.5 42.0999 271C42.4999 271.5 42.6999 272.1 42.6999 273V281.9H46.0999V273C46.0999 272.2 45.9999 271.5 45.7999 270.8C45.4999 270.2 45.1999 269.7 44.7999 269.2ZM56.1999 279.1C56.0999 279 56.0999 279 55.9999 279C55.8999 279 55.7999 279 55.7999 279.1C55.6999 279.1 55.5999 279.2 55.4999 279.3C55.3999 279.4 55.2999 279.4 55.0999 279.5C54.9999 279.6 54.7999 279.6 54.5999 279.6C54.1999 279.6 53.8999 279.5 53.6999 279.2C53.4999 279 53.3999 278.6 53.3999 278.2V270.5H57.1999V268.1H53.2999V263.7H51.4999C51.2999 263.7 51.0999 263.8 50.9999 263.9C50.8999 264 50.7999 264.1 50.6999 264.3L49.9999 268.1L47.6999 268.5V269.8C47.6999 270 47.7999 270.2 47.8999 270.3C47.9999 270.4 48.1999 270.5 48.3999 270.5H49.7999V278.4C49.7999 279.6 50.0999 280.6 50.7999 281.3C51.4999 282 52.3999 282.3 53.5999 282.3C54.2999 282.3 54.8999 282.2 55.5999 282C56.1999 281.8 56.7999 281.5 57.2999 281.1L56.2999 279.5C56.3999 279.2 56.2999 279.2 56.1999 279.1V279.1ZM71.1999 275.1C71.2999 274.9 71.3999 274.6 71.3999 274.1C71.3999 273.1 71.1999 272.2 70.8999 271.4C70.5999 270.6 70.1999 269.9 69.5999 269.4C69.0999 268.9 68.3999 268.4 67.6999 268.2C66.9999 267.9 66.0999 267.8 65.1999 267.8C64.0999 267.8 63.1999 268 62.3999 268.3C61.5999 268.7 60.8999 269.2 60.2999 269.8C59.6999 270.4 59.2999 271.2 58.9999 272C58.6999 272.8 58.4999 273.7 58.4999 274.7C58.4999 275.9 58.6999 277 58.9999 278C59.3999 278.9 59.7999 279.7 60.4999 280.4C61.0999 281 61.8999 281.5 62.6999 281.8C63.4999 282.1 64.3999 282.3 65.3999 282.3C65.8999 282.3 66.3999 282.3 66.8999 282.2C67.3999 282.1 67.8999 282 68.3999 281.8C68.8999 281.6 69.3999 281.4 69.8999 281.1C70.3999 280.8 70.7999 280.4 71.1999 280L70.1999 278.8C70.0999 278.6 69.8999 278.5 69.5999 278.5C69.3999 278.5 69.1999 278.6 68.8999 278.7C68.6999 278.8 68.3999 279 68.0999 279.1C67.7999 279.3 67.4999 279.4 67.0999 279.5C66.6999 279.6 66.1999 279.7 65.6999 279.7C65.1999 279.7 64.6999 279.6 64.1999 279.4C63.6999 279.2 63.3999 279 62.9999 278.6C62.6999 278.3 62.3999 277.8 62.1999 277.3C61.9999 276.8 61.8999 276.2 61.7999 275.4H70.4999C70.8999 275.4 71.0999 275.3 71.1999 275.1V275.1ZM61.8999 273.4C62.0999 272.4 62.3999 271.6 62.9999 271C63.5999 270.4 64.2999 270.2 65.2999 270.2C65.7999 270.2 66.1999 270.3 66.5999 270.5C66.9999 270.7 67.2999 270.9 67.4999 271.2C67.6999 271.5 67.8999 271.8 68.0999 272.2C68.1999 272.6 68.2999 273 68.2999 273.4H61.8999V273.4ZM78.6999 268.4C78.0999 268.9 77.5999 269.5 77.0999 270.4L76.8999 268.8C76.8999 268.5 76.7999 268.3 76.5999 268.1C76.4999 268 76.1999 267.9 75.8999 267.9H73.8999V282H77.2999V273.3C77.4999 272.9 77.5999 272.6 77.7999 272.3C77.9999 272 78.1999 271.8 78.3999 271.6C78.5999 271.4 78.8999 271.2 79.1999 271.1C79.4999 271 79.7999 270.9 80.1999 270.9C80.4999 270.9 80.6999 270.9 80.9999 271C81.2999 271 81.4999 271.1 81.5999 271.1C81.6999 271.1 81.8999 271.1 81.8999 271C81.9999 270.9 82.0999 270.8 82.0999 270.7L82.2999 268.2C81.8999 267.9 81.3999 267.8 80.6999 267.8C79.9999 267.7 79.2999 267.9 78.6999 268.4V268.4ZM95.1999 269.2C94.7999 268.7 94.2999 268.4 93.6999 268.1C93.0999 267.8 92.3999 267.7 91.6999 267.7C91.1999 267.7 90.7999 267.7 90.3999 267.8C89.9999 267.9 89.5999 268 89.2999 268.2C88.8999 268.4 88.5999 268.6 88.2999 268.8C87.9999 269 87.6999 269.3 87.3999 269.6L87.1999 268.5C87.0999 268.1 86.7999 267.9 86.2999 267.9H84.1999V282H87.5999V271.8C88.0999 271.3 88.4999 271 89.0999 270.7C89.5999 270.4 90.1999 270.3 90.6999 270.3C91.4999 270.3 92.0999 270.5 92.4999 271C92.8999 271.5 93.0999 272.1 93.0999 273V281.9H96.4999V273C96.4999 272.2 96.3999 271.5 96.1999 270.8C95.8999 270.2 95.5999 269.7 95.1999 269.2ZM111.5 275.1C111.6 274.9 111.7 274.6 111.7 274.1C111.7 273.1 111.5 272.2 111.2 271.4C110.9 270.6 110.5 269.9 109.9 269.4C109.4 268.9 108.7 268.4 108 268.2C107.3 267.9 106.4 267.8 105.5 267.8C104.4 267.8 103.5 268 102.7 268.3C101.9 268.7 101.2 269.2 100.6 269.8C99.9999 270.4 99.5999 271.2 99.2999 272C98.9999 272.8 98.7999 273.7 98.7999 274.7C98.7999 275.9 98.9999 277 99.2999 278C99.6999 278.9 100.1 279.7 100.8 280.4C101.4 281 102.2 281.5 103 281.8C103.8 282.1 104.7 282.3 105.7 282.3C106.2 282.3 106.7 282.3 107.2 282.2C107.7 282.1 108.2 282 108.7 281.8C109.2 281.6 109.7 281.4 110.2 281.1C110.7 280.8 111.1 280.4 111.5 280L110.5 278.8C110.4 278.6 110.2 278.5 109.9 278.5C109.7 278.5 109.5 278.6 109.2 278.7C109 278.8 108.7 279 108.4 279.1C108.1 279.3 107.8 279.4 107.4 279.5C107 279.6 106.5 279.7 106 279.7C105.5 279.7 105 279.6 104.5 279.4C104 279.2 103.7 279 103.3 278.6C103 278.3 102.7 277.8 102.5 277.3C102.3 276.8 102.2 276.2 102.1 275.4H110.8C111.2 275.4 111.4 275.3 111.5 275.1V275.1ZM102.2 273.4C102.4 272.4 102.7 271.6 103.3 271C103.9 270.4 104.6 270.2 105.6 270.2C106.1 270.2 106.5 270.3 106.9 270.5C107.3 270.7 107.6 270.9 107.8 271.2C108 271.5 108.2 271.8 108.4 272.2C108.5 272.6 108.6 273 108.6 273.4H102.2V273.4ZM121.2 279.1C121.1 279 121.1 279 121 279C120.9 279 120.8 279 120.8 279.1C120.7 279.1 120.6 279.2 120.5 279.3C120.4 279.4 120.3 279.4 120.1 279.5C120 279.6 119.8 279.6 119.6 279.6C119.2 279.6 118.9 279.5 118.7 279.2C118.5 279 118.4 278.6 118.4 278.2V270.5H122.2V268.1H118.3V263.7H116.5C116.3 263.7 116.1 263.8 116 263.9C115.9 264 115.8 264.1 115.7 264.3L115 268.1L112.7 268.5V269.8C112.7 270 112.8 270.2 112.9 270.3C113 270.4 113.2 270.5 113.4 270.5H114.8V278.4C114.8 279.6 115.1 280.6 115.8 281.3C116.5 282 117.4 282.3 118.6 282.3C119.3 282.3 119.9 282.2 120.6 282C121.2 281.8 121.8 281.5 122.3 281.1L121.3 279.5C121.3 279.2 121.3 279.2 121.2 279.1Z" fill="#444444"/>
<path d="M127.3 249.3C123.4 231.4 107.5 218 88.5 218C74.3 218 61.8 225.5 54.8 236.7C51.6 234.7 47.8 233.5 43.7 233.5C34.2 233.5 26.1 239.8 23.5 248.5C10.4 249.2 0 260 0 273.3C0 287 11.1 298.1 24.8 298.1H121.1C134.8 298.1 145.9 287 145.9 273.3C145.8 261.8 138 252.1 127.3 249.3V249.3ZM121 293.2H24.7C13.8 293.2 4.9 284.3 4.9 273.4C4.9 262.8 13.2 254.1 23.7 253.6L27.2 253.4L28.2 250C30.3 243.2 36.5 238.6 43.7 238.6C46.7 238.6 49.6 239.4 52.1 241L56.3 243.6L58.9 239.4C65.3 229.1 76.3 223 88.4 223C104.7 223 118.9 234.5 122.3 250.4L122.9 253.4L125.9 254.2C134.6 256.5 140.7 264.4 140.7 273.4C140.8 284.3 132 293.2 121 293.2V293.2ZM956.3 254.3C952.4 236.4 936.5 223 917.5 223C903.3 223 890.8 230.5 883.8 241.7C880.6 239.7 876.8 238.5 872.7 238.5C863.2 238.5 855.1 244.8 852.5 253.5C839.4 254.2 829 265 829 278.3C829 292 840.1 303.1 853.8 303.1H950.1C963.8 303.1 974.9 292 974.9 278.3C974.8 266.8 967 257.1 956.3 254.3V254.3ZM950 298.2H853.7C842.8 298.2 833.9 289.3 833.9 278.4C833.9 267.8 842.2 259.1 852.7 258.6L856.2 258.4L857.2 255C859.3 248.2 865.5 243.6 872.7 243.6C875.7 243.6 878.6 244.4 881.1 246L885.3 248.6L887.9 244.4C894.3 234.1 905.3 228 917.4 228C933.7 228 947.9 239.5 951.3 255.4L951.9 258.4L954.9 259.2C963.6 261.5 969.7 269.4 969.7 278.4C969.8 289.3 961 298.2 950 298.2Z" fill="#444444"/>
<path d="M877.882 266.805L882.812 280.727L887.717 266.805H892.911V286H888.943V280.753L889.338 271.696L884.157 286H881.441L876.273 271.709L876.669 280.753V286H872.714V266.805H877.882ZM902.68 286.264C900.588 286.264 898.883 285.622 897.565 284.339C896.255 283.056 895.601 281.346 895.601 279.21V278.841C895.601 277.409 895.877 276.13 896.431 275.005C896.985 273.871 897.767 273.001 898.778 272.395C899.797 271.779 900.958 271.472 902.258 271.472C904.209 271.472 905.743 272.087 906.859 273.317C907.984 274.548 908.547 276.292 908.547 278.551V280.107H899.463C899.586 281.039 899.956 281.786 900.571 282.348C901.195 282.911 901.981 283.192 902.931 283.192C904.398 283.192 905.545 282.66 906.372 281.597L908.244 283.693C907.672 284.501 906.899 285.134 905.923 285.591C904.948 286.04 903.867 286.264 902.68 286.264V286.264ZM902.245 274.557C901.489 274.557 900.874 274.811 900.399 275.321C899.934 275.831 899.635 276.561 899.503 277.51H904.803V277.207C904.785 276.363 904.557 275.712 904.117 275.255C903.678 274.79 903.054 274.557 902.245 274.557V274.557ZM918.448 282.058C918.448 281.592 918.215 281.228 917.749 280.964C917.292 280.691 916.554 280.45 915.534 280.239C912.142 279.527 910.445 278.085 910.445 275.915C910.445 274.649 910.968 273.594 912.014 272.75C913.069 271.898 914.444 271.472 916.141 271.472C917.951 271.472 919.397 271.898 920.478 272.75C921.568 273.603 922.113 274.71 922.113 276.073H918.303C918.303 275.528 918.127 275.08 917.775 274.728C917.424 274.368 916.875 274.187 916.127 274.187C915.486 274.187 914.989 274.332 914.638 274.623C914.286 274.913 914.11 275.282 914.11 275.73C914.11 276.152 914.308 276.495 914.704 276.758C915.108 277.013 915.785 277.237 916.734 277.431C917.683 277.615 918.483 277.826 919.133 278.063C921.146 278.802 922.152 280.081 922.152 281.9C922.152 283.201 921.594 284.255 920.478 285.064C919.362 285.864 917.92 286.264 916.154 286.264C914.958 286.264 913.895 286.053 912.963 285.631C912.041 285.2 911.315 284.616 910.788 283.877C910.261 283.13 909.997 282.326 909.997 281.465H913.609C913.645 282.142 913.895 282.66 914.361 283.02C914.827 283.381 915.451 283.561 916.233 283.561C916.962 283.561 917.512 283.425 917.881 283.152C918.259 282.871 918.448 282.506 918.448 282.058V282.058ZM928.335 273.291C929.346 272.078 930.616 271.472 932.146 271.472C935.239 271.472 936.808 273.269 936.852 276.864V286H933.042V276.969C933.042 276.152 932.866 275.55 932.515 275.163C932.163 274.768 931.579 274.57 930.761 274.57C929.645 274.57 928.836 275 928.335 275.862V286H924.525V265.75H928.335V273.291Z" fill="#444444"/>
<path d="M802.166 249.434C802.373 250.206 803.231 250.701 804.003 250.494C804.776 250.287 805.271 249.43 805.064 248.657C802.579 239.384 808.069 229.735 817.438 227.224C818.211 227.017 818.706 226.16 818.499 225.387C818.292 224.614 817.435 224.119 816.662 224.326C805.747 227.251 799.242 238.519 802.166 249.434V249.434ZM788.547 253.083C783.603 234.634 794.563 215.65 813.013 210.707C813.785 210.5 814.28 209.642 814.073 208.87C813.866 208.097 813.009 207.602 812.236 207.809C792.242 213.166 780.291 233.865 785.649 253.859C785.856 254.632 786.713 255.127 787.486 254.92C788.259 254.713 788.754 253.856 788.547 253.083Z" fill="#B7B7B7"/>
<path d="M772.029 257.509C764.653 229.98 781.084 201.662 808.516 194.312C809.289 194.105 809.784 193.247 809.577 192.475C809.37 191.702 808.512 191.207 807.74 191.414C778.665 199.205 761.341 229.211 769.132 258.285C769.339 259.058 770.196 259.553 770.969 259.346C771.741 259.139 772.236 258.281 772.029 257.509Z" fill="#B7B7B7"/>
<path d="M257.094 211.922C254.521 211.182 252.646 210.276 251.469 209.203C250.302 208.12 249.719 206.786 249.719 205.203C249.719 203.411 250.432 201.932 251.859 200.766C253.297 199.589 255.161 199 257.453 199C259.016 199 260.406 199.302 261.625 199.906C262.854 200.51 263.802 201.344 264.469 202.406C265.139 203.444 265.491 204.655 265.484 205.891H262.469C262.469 204.516 262.031 203.438 261.156 202.656C260.281 201.865 259.047 201.469 257.453 201.469C255.974 201.469 254.818 201.797 253.984 202.453C253.161 203.099 252.75 204 252.75 205.156C252.75 206.083 253.141 206.87 253.922 207.516C254.714 208.151 256.052 208.734 257.938 209.266C259.833 209.797 261.312 210.385 262.375 211.031C263.448 211.667 264.24 212.411 264.75 213.266C265.271 214.12 265.531 215.125 265.531 216.281C265.531 218.125 264.812 219.604 263.375 220.719C261.938 221.823 260.016 222.375 257.609 222.375C256.047 222.375 254.589 222.078 253.234 221.484C251.88 220.88 250.833 220.057 250.094 219.016C249.365 217.974 249 216.792 249 215.469H252.016C252.016 216.844 252.521 217.932 253.531 218.734C254.552 219.526 255.911 219.922 257.609 219.922C259.193 219.922 260.406 219.599 261.25 218.953C262.094 218.307 262.516 217.427 262.516 216.312C262.516 215.198 262.125 214.339 261.344 213.734C260.562 213.12 259.146 212.516 257.094 211.922ZM276.094 211.922C273.521 211.182 271.646 210.276 270.469 209.203C269.302 208.12 268.719 206.786 268.719 205.203C268.719 203.411 269.432 201.932 270.859 200.766C272.297 199.589 274.161 199 276.453 199C278.016 199 279.406 199.302 280.625 199.906C281.854 200.51 282.802 201.344 283.469 202.406C284.139 203.444 284.491 204.655 284.484 205.891H281.469C281.469 204.516 281.031 203.438 280.156 202.656C279.281 201.865 278.047 201.469 276.453 201.469C274.974 201.469 273.818 201.797 272.984 202.453C272.161 203.099 271.75 204 271.75 205.156C271.75 206.083 272.141 206.87 272.922 207.516C273.714 208.151 275.052 208.734 276.938 209.266C278.833 209.797 280.312 210.385 281.375 211.031C282.448 211.667 283.24 212.411 283.75 213.266C284.271 214.12 284.531 215.125 284.531 216.281C284.531 218.125 283.812 219.604 282.375 220.719C280.938 221.823 279.016 222.375 276.609 222.375C275.047 222.375 273.589 222.078 272.234 221.484C270.88 220.88 269.833 220.057 269.094 219.016C268.365 217.974 268 216.792 268 215.469H271.016C271.016 216.844 271.521 217.932 272.531 218.734C273.552 219.526 274.911 219.922 276.609 219.922C278.193 219.922 279.406 219.599 280.25 218.953C281.094 218.307 281.516 217.427 281.516 216.312C281.516 215.198 281.125 214.339 280.344 213.734C279.562 213.12 278.146 212.516 276.094 211.922ZM291.609 222.062H288.609V199.312H291.609V222.062ZM297.109 222.062V199.312H303.531C305.51 199.312 307.26 199.75 308.781 200.625C310.302 201.5 311.474 202.745 312.297 204.359C313.13 205.974 313.552 207.828 313.562 209.922V211.375C313.562 213.521 313.146 215.401 312.312 217.016C311.49 218.63 310.307 219.87 308.766 220.734C307.234 221.599 305.448 222.042 303.406 222.062H297.109ZM300.109 201.781V219.609H303.266C305.578 219.609 307.375 218.891 308.656 217.453C309.948 216.016 310.594 213.969 310.594 211.312V209.984C310.594 207.401 309.984 205.396 308.766 203.969C307.557 202.531 305.839 201.802 303.609 201.781H300.109Z" fill="#A7A7A7"/>
<path d="M559.949 292.854H569.383V295H557.311V275.094H559.949V292.854ZM583.643 289.805H575.303L573.43 295H570.723L578.324 275.094H580.621L588.236 295H585.543L583.643 289.805V289.805ZM576.096 287.645H582.863L579.473 278.334L576.096 287.645V287.645ZM606.215 295H603.576L593.555 279.66V295H590.916V275.094H593.555L603.604 290.502V275.094H606.215V295ZM559.949 329.854H569.383V332H557.311V312.094H559.949V329.854ZM583.643 326.805H575.303L573.43 332H570.723L578.324 312.094H580.621L588.236 332H585.543L583.643 326.805ZM576.096 324.645H582.863L579.473 315.334L576.096 324.645V324.645ZM606.215 332H603.576L593.555 316.66V332H590.916V312.094H593.555L603.604 327.502V312.094H606.215V332Z" fill="#434343"/>
<path d="M617 284.5H824" stroke="#B7B7B7" stroke-width="3"/>
<path d="M916.9 58.4L916.6 57.8C915 54.5 913.7 51.6 910.4 50.7C912 49.1 913.1 46.8 913.1 44.3V8.5C913.1 3.8 909.3 0 904.6 0H836.6C831.9 0 828.1 3.8 828.1 8.5V44.3C828.1 46.9 829.2 49.1 831.1 50.6C827.3 51.6 825.7 55.2 824.3 58.4L820 67.7V68.2C820 71.1 820 77.1 827.5 77.1H915.6C919.5 77.1 921.4 74.1 921.4 68.2V67.6L916.9 58.4V58.4ZM888.2 58V59C888.2 60.1 887.3 61 886.2 61H884.3C883.2 61 882.3 60.1 882.3 59V58C882.3 56.9 883.2 56 884.3 56H886.2C887.3 56 888.2 56.9 888.2 58ZM880.3 57.9V58.9C880.3 60 879.4 60.9 878.3 60.9H876.4C875.3 60.9 874.4 60 874.4 58.9V57.9C874.4 56.8 875.3 55.9 876.4 55.9H878.3C879.4 55.9 880.3 56.8 880.3 57.9ZM872.3 57.9V58.9C872.3 60 871.4 60.9 870.3 60.9H868.4C867.3 60.9 866.4 60 866.4 58.9V57.9C866.4 56.8 867.3 55.9 868.4 55.9H870.3C871.4 55.9 872.3 56.8 872.3 57.9ZM864.3 57.9V58.9C864.3 60 863.4 60.9 862.3 60.9H860.4C859.3 60.9 858.4 60 858.4 58.9V57.9C858.4 56.8 859.3 55.9 860.4 55.9H862.3C863.4 55.9 864.3 56.8 864.3 57.9ZM856.3 57.9V58.9C856.3 60 855.4 60.9 854.3 60.9H852.4C851.3 60.9 850.4 60 850.4 58.9V57.9C850.4 56.8 851.3 55.9 852.4 55.9H854.3C855.4 55.9 856.3 56.8 856.3 57.9ZM833.1 8.5C833.1 6.6 834.7 5 836.6 5H904.6C906.5 5 908.1 6.6 908.1 8.5V44.3C908.1 46.3 906.5 47.8 905.6 47.8H837.6C834.9 47.8 833.1 46.4 833.1 44.3V8.5ZM836.2 67C836.2 68.1 835.3 69 834.2 69H832.3C831.2 69 830.3 68.1 830.3 67V66C830.3 64.9 831.2 64 832.3 64H834.2C835.3 64 836.2 64.9 836.2 66V67ZM836.4 60.9C835.3 60.9 834.4 60 834.4 58.9V57.9C834.4 56.8 835.3 55.9 836.4 55.9H838.3C839.4 55.9 840.3 56.8 840.3 57.9V58.9C840.3 60 839.4 60.9 838.3 60.9H836.4ZM844.2 67C844.2 68.1 843.3 69 842.2 69H840.3C839.2 69 838.3 68.1 838.3 67V66C838.3 64.9 839.2 64 840.3 64H842.2C843.3 64 844.2 64.9 844.2 66V67ZM844.4 60.9C843.3 60.9 842.4 60 842.4 58.9V57.9C842.4 56.8 843.3 55.9 844.4 55.9H846.3C847.4 55.9 848.3 56.8 848.3 57.9V58.9C848.3 60 847.4 60.9 846.3 60.9H844.4ZM892.2 67C892.2 68.1 891.3 69 890.2 69H848.3C847.2 69 846.3 68.1 846.3 67V66C846.3 64.9 847.2 64 848.3 64H890.2C891.3 64 892.2 64.9 892.2 66V67ZM892.3 61C891.2 61 890.3 60.1 890.3 59V58C890.3 56.9 891.2 56 892.3 56H894.2C895.3 56 896.2 56.9 896.2 58V59C896.2 60.1 895.3 61 894.2 61H892.3ZM900.2 67C900.2 68.1 899.3 69 898.2 69H896.3C895.2 69 894.3 68.1 894.3 67V66C894.3 64.9 895.2 64 896.3 64H898.2C899.3 64 900.2 64.9 900.2 66V67ZM900.3 61C899.2 61 898.3 60.1 898.3 59V58C898.3 56.9 899.2 56 900.3 56H902.2C903.3 56 904.2 56.9 904.2 58V59C904.2 60.1 903.3 61 902.2 61H900.3ZM908.2 67C908.2 68.1 907.3 69 906.2 69H904.3C903.2 69 902.3 68.1 902.3 67V66C902.3 64.9 903.2 64 904.3 64H906.2C907.3 64 908.2 64.9 908.2 66V67Z" fill="#444444"/>
<path d="M818.6 99C819.4 99 820.1 98.3 820.1 97.5C820.1 96.7 819.4 96 818.6 96C809 96 801.1 88.2 801.1 78.5C801.1 77.7 800.4 77 799.6 77C798.8 77 798.1 77.7 798.1 78.5C798.1 89.8 807.3 99 818.6 99ZM818.6 113.1C799.5 113.1 784 97.6 784 78.5C784 77.7 783.3 77 782.5 77C781.7 77 781 77.7 781 78.5C781 99.2 797.9 116.1 818.6 116.1C819.4 116.1 820.1 115.4 820.1 114.6C820.1 113.8 819.4 113.1 818.6 113.1Z" fill="#B7B7B7"/>
<path d="M818.6 130.2C790.1 130.2 767 107 767 78.6001C767 77.8001 766.3 77.1001 765.5 77.1001C764.7 77.1001 764 77.8001 764 78.6001C764 108.7 788.5 133.2 818.6 133.2C819.4 133.2 820.1 132.5 820.1 131.7C820.1 130.9 819.4 130.2 818.6 130.2ZM529.617 185.836C529.051 185.27 528.061 185.27 527.496 185.836C526.93 186.401 526.93 187.391 527.496 187.957C534.284 194.745 534.355 205.847 527.496 212.706C526.93 213.271 526.93 214.261 527.496 214.827C528.061 215.393 529.051 215.393 529.617 214.827C537.607 206.837 537.607 193.826 529.617 185.836V185.836ZM539.587 175.865C553.093 189.371 553.093 211.291 539.587 224.797C539.022 225.363 539.022 226.353 539.587 226.918C540.153 227.484 541.143 227.484 541.709 226.918C556.346 212.281 556.346 188.381 541.709 173.744C541.143 173.178 540.153 173.178 539.587 173.744C539.022 174.31 539.022 175.3 539.587 175.865Z" fill="#B7B7B7"/>
<path d="M551.679 163.774C571.831 183.926 571.761 216.665 551.679 236.747C551.113 237.313 551.113 238.303 551.679 238.869C552.245 239.434 553.234 239.434 553.8 238.869C575.084 217.585 575.084 182.936 553.8 161.653C553.234 161.087 552.245 161.087 551.679 161.653C551.113 162.218 551.113 163.208 551.679 163.774V163.774ZM427.791 214.756C428.357 215.322 429.347 215.322 429.912 214.756C430.478 214.191 430.478 213.201 429.912 212.635C423.124 205.847 423.054 194.745 429.912 187.886C430.478 187.321 430.478 186.331 429.912 185.765C429.347 185.199 428.357 185.199 427.791 185.765C419.801 193.755 419.801 206.766 427.791 214.756V214.756ZM417.821 224.726C404.315 211.221 404.315 189.3 417.821 175.795C418.387 175.229 418.387 174.239 417.821 173.673C417.255 173.108 416.265 173.108 415.7 173.673C401.062 188.31 401.062 212.211 415.7 226.848C416.265 227.413 417.255 227.413 417.821 226.848C418.387 226.282 418.387 225.292 417.821 224.726Z" fill="#B7B7B7"/>
<path d="M405.729 236.818C385.577 216.665 385.648 183.926 405.729 163.845C406.295 163.279 406.295 162.289 405.729 161.723C405.164 161.158 404.174 161.158 403.608 161.723C382.324 183.007 382.324 217.655 403.608 238.939C404.174 239.505 405.164 239.505 405.729 238.939C406.295 238.374 406.295 237.384 405.729 236.818ZM149.299 223.368C148.606 222.968 147.65 223.224 147.25 223.917C146.85 224.61 147.106 225.566 147.799 225.966C156.113 230.766 159.054 241.471 154.204 249.872C153.804 250.564 154.061 251.521 154.753 251.921C155.446 252.321 156.402 252.064 156.802 251.372C162.452 241.585 159.085 229.018 149.299 223.368V223.368ZM156.349 211.157C172.89 220.707 178.563 241.88 169.013 258.422C168.613 259.114 168.87 260.071 169.563 260.471C170.255 260.871 171.212 260.614 171.612 259.922C181.962 241.995 175.776 218.909 157.849 208.559C157.156 208.159 156.2 208.415 155.8 209.108C155.4 209.801 155.656 210.757 156.349 211.157V211.157Z" fill="#B7B7B7"/>
<path d="M164.899 196.348C189.581 210.598 197.986 242.24 183.786 266.835C183.386 267.528 183.642 268.484 184.335 268.884C185.028 269.284 185.984 269.028 186.384 268.335C201.434 242.268 192.466 208.8 166.399 193.75C165.706 193.35 164.75 193.606 164.35 194.299C163.95 194.992 164.206 195.948 164.899 196.348V196.348Z" fill="#B7B7B7"/>
<path d="M905.5 412H837.5C832.8 412 829 415.8 829 420.5V460.3C829 465 832.8 468.8 837.5 468.8H860.7V474.7H848.7C846.8 474.7 845.2 476.3 845.2 478.2C845.2 480.1 846.8 481.7 848.7 481.7H890.7C892.6 481.7 894.2 480.1 894.2 478.2C894.2 476.3 892.6 474.7 890.7 474.7H878.7V468.8H905.5C910.2 468.8 914 465 914 460.3V420.5C914 415.8 910.2 412 905.5 412ZM909 460.3C909 462.2 907.4 463.8 905.5 463.8H837.5C835.6 463.8 834 462.2 834 460.3V420.5C834 418.6 835.6 417 837.5 417H905.5C907.4 417 909 418.6 909 420.5V460.3ZM948 412H925.3C921.5 412 918.3 415.2 918.3 419V473.2C918.3 477 921.5 480.2 925.3 480.2H948C951.8 480.2 955 477 955 473.2V419C955 415.1 951.8 412 948 412ZM936.2 468.9C933.5 468.9 931.3 466.7 931.3 464C931.3 461.3 933.5 459.1 936.2 459.1C938.9 459.1 941.1 461.3 941.1 464C941.1 466.7 938.9 468.9 936.2 468.9ZM950.2 435.3C950.2 437 948.8 438.3 947.2 438.3H926.1C924.4 438.3 923.1 437 923.1 435.3V433.8C923.1 432.1 924.4 430.8 926.1 430.8H947.2C948.8 430.8 950.2 432.1 950.2 433.8V435.3ZM950.2 423.3C950.2 425 948.8 426.3 947.2 426.3H926.1C924.4 426.3 923.1 425 923.1 423.3V421.8C923.1 420.1 924.4 418.8 926.1 418.8H947.2C948.8 418.8 950.2 420.1 950.2 421.8V423.3Z" fill="#444444"/>
<path d="M611.391 197.094L617.898 213.336L624.406 197.094H627.811V217H625.186V209.248L625.432 200.881L618.896 217H616.887L610.365 200.922L610.625 209.248V217H608V197.094H611.391ZM638.188 217.273C636.182 217.273 634.551 216.617 633.293 215.305C632.035 213.983 631.406 212.219 631.406 210.014V209.549C631.406 208.081 631.684 206.773 632.24 205.625C632.805 204.467 633.589 203.565 634.592 202.918C635.565 202.274 636.706 201.931 637.873 201.934C639.796 201.934 641.291 202.567 642.357 203.834C643.424 205.101 643.957 206.915 643.957 209.275V210.328H633.936C633.972 211.786 634.396 212.967 635.207 213.869C636.027 214.762 637.066 215.209 638.324 215.209C639.217 215.209 639.974 215.027 640.594 214.662C641.224 214.288 641.777 213.796 642.221 213.213L643.766 214.416C642.526 216.321 640.667 217.273 638.188 217.273V217.273ZM637.873 204.012C636.852 204.012 635.995 204.385 635.303 205.133C634.61 205.871 634.182 206.91 634.018 208.25H641.428V208.059C641.355 206.773 641.008 205.78 640.389 205.078C639.769 204.367 638.93 204.012 637.873 204.012ZM655.51 213.076C655.51 212.393 655.25 211.864 654.73 211.49C654.22 211.107 653.322 210.779 652.037 210.506C650.761 210.232 649.745 209.904 648.988 209.521C648.241 209.139 647.685 208.683 647.32 208.154C646.965 207.626 646.787 206.997 646.787 206.268C646.787 205.055 647.298 204.03 648.318 203.191C649.348 202.353 650.661 201.934 652.256 201.934C653.933 201.934 655.291 202.367 656.33 203.232C657.378 204.098 657.902 205.206 657.902 206.555H655.359C655.359 205.862 655.063 205.265 654.471 204.764C653.887 204.262 653.149 204.012 652.256 204.012C651.335 204.012 650.615 204.212 650.096 204.613C649.576 205.014 649.316 205.538 649.316 206.186C649.316 206.796 649.558 207.256 650.041 207.566C650.524 207.876 651.395 208.172 652.652 208.455C653.919 208.738 654.945 209.075 655.729 209.467C656.512 209.859 657.091 210.333 657.465 210.889C657.848 211.436 658.039 212.105 658.039 212.898C658.039 214.22 657.51 215.282 656.453 216.084C655.396 216.877 654.024 217.273 652.338 217.273C651.153 217.273 650.105 217.064 649.193 216.645C648.282 216.225 647.566 215.642 647.047 214.895C646.548 214.176 646.281 213.322 646.281 212.447H648.811C648.856 213.295 649.193 213.969 649.822 214.471C650.46 214.963 651.299 215.209 652.338 215.209C653.295 215.209 654.061 215.018 654.635 214.635C655.218 214.243 655.51 213.723 655.51 213.076V213.076ZM663.863 203.998C664.984 202.622 666.443 201.934 668.238 201.934C671.365 201.934 672.941 203.697 672.969 207.225V217H670.439V207.211C670.43 206.145 670.184 205.356 669.701 204.846C669.227 204.335 668.484 204.08 667.473 204.08C666.652 204.08 665.932 204.299 665.312 204.736C664.69 205.177 664.191 205.77 663.863 206.459V217H661.334V196H663.863V203.998V203.998ZM689.963 208.127C687.712 207.48 686.071 206.687 685.041 205.748C684.02 204.8 683.51 203.633 683.51 202.248C683.51 200.68 684.134 199.386 685.383 198.365C686.641 197.335 688.272 196.82 690.277 196.82C691.645 196.82 692.861 197.085 693.928 197.613C695.003 198.142 695.833 198.871 696.416 199.801C697.008 200.73 697.305 201.747 697.305 202.85H694.666C694.666 201.646 694.283 200.703 693.518 200.02C692.752 199.327 691.672 198.98 690.277 198.98C688.983 198.98 687.971 199.268 687.242 199.842C686.522 200.407 686.162 201.195 686.162 202.207C686.162 203.018 686.504 203.706 687.188 204.271C687.88 204.827 689.051 205.338 690.701 205.803C692.36 206.268 693.654 206.783 694.584 207.348C695.523 207.904 696.215 208.555 696.662 209.303C697.118 210.05 697.346 210.93 697.346 211.941C697.346 213.555 696.717 214.849 695.459 215.824C694.201 216.79 692.52 217.273 690.414 217.273C689.047 217.273 687.771 217.014 686.586 216.494C685.401 215.965 684.485 215.245 683.838 214.334C683.2 213.422 682.881 212.388 682.881 211.23H685.52C685.52 212.434 685.962 213.386 686.846 214.088C687.739 214.781 688.928 215.127 690.414 215.127C691.799 215.127 692.861 214.844 693.6 214.279C694.338 213.714 694.707 212.944 694.707 211.969C694.707 210.993 694.365 210.242 693.682 209.713C692.998 209.175 691.758 208.646 689.963 208.127V208.127ZM706.588 208.127C704.337 207.48 702.696 206.687 701.666 205.748C700.645 204.8 700.135 203.633 700.135 202.248C700.135 200.68 700.759 199.386 702.008 198.365C703.266 197.335 704.897 196.82 706.902 196.82C708.27 196.82 709.486 197.085 710.553 197.613C711.628 198.142 712.458 198.871 713.041 199.801C713.633 200.73 713.93 201.747 713.93 202.85H711.291C711.291 201.646 710.908 200.703 710.143 200.02C709.377 199.327 708.297 198.98 706.902 198.98C705.608 198.98 704.596 199.268 703.867 199.842C703.147 200.407 702.787 201.195 702.787 202.207C702.787 203.018 703.129 203.706 703.812 204.271C704.505 204.827 705.676 205.338 707.326 205.803C708.985 206.268 710.279 206.783 711.209 207.348C712.148 207.904 712.84 208.555 713.287 209.303C713.743 210.05 713.971 210.93 713.971 211.941C713.971 213.555 713.342 214.849 712.084 215.824C710.826 216.79 709.145 217.273 707.039 217.273C705.672 217.273 704.396 217.014 703.211 216.494C702.026 215.965 701.11 215.245 700.463 214.334C699.825 213.422 699.506 212.388 699.506 211.23H702.145C702.145 212.434 702.587 213.386 703.471 214.088C704.364 214.781 705.553 215.127 707.039 215.127C708.424 215.127 709.486 214.844 710.225 214.279C710.963 213.714 711.332 212.944 711.332 211.969C711.332 210.993 710.99 210.242 710.307 209.713C709.623 209.175 708.383 208.646 706.588 208.127V208.127ZM720.164 217H717.539V197.094H720.164V217ZM724.977 217V197.094H730.596C732.327 197.094 733.859 197.477 735.189 198.242C736.52 199.008 737.546 200.097 738.266 201.51C738.995 202.922 739.364 204.545 739.373 206.377V207.648C739.373 209.526 739.008 211.171 738.279 212.584C737.559 213.997 736.525 215.081 735.176 215.838C733.836 216.594 732.273 216.982 730.486 217H724.977V217ZM727.602 199.254V214.853H730.363C732.387 214.853 733.959 214.225 735.08 212.967C736.21 211.709 736.775 209.918 736.775 207.594V206.432C736.775 204.171 736.242 202.417 735.176 201.168C734.118 199.91 732.615 199.272 730.664 199.254H727.602Z" fill="#A7A7A7"/>
<path d="M618 322.5H735.5V437.5H819.5" stroke="#B7B7B7" stroke-width="3"/>
<path d="M627.082 133.307C624.831 132.66 623.19 131.867 622.16 130.928C621.139 129.98 620.629 128.813 620.629 127.428C620.629 125.86 621.253 124.566 622.502 123.545C623.76 122.515 625.391 122 627.396 122C628.764 122 629.98 122.264 631.047 122.793C632.122 123.322 632.952 124.051 633.535 124.98C634.128 125.91 634.424 126.926 634.424 128.029H631.785C631.785 126.826 631.402 125.883 630.637 125.199C629.871 124.507 628.791 124.16 627.396 124.16C626.102 124.16 625.09 124.447 624.361 125.021C623.641 125.587 623.281 126.375 623.281 127.387C623.281 128.198 623.623 128.886 624.307 129.451C624.999 130.007 626.171 130.518 627.82 130.982C629.479 131.447 630.773 131.962 631.703 132.527C632.642 133.083 633.335 133.735 633.781 134.482C634.237 135.23 634.465 136.109 634.465 137.121C634.465 138.734 633.836 140.029 632.578 141.004C631.32 141.97 629.639 142.453 627.533 142.453C626.166 142.453 624.89 142.193 623.705 141.674C622.52 141.145 621.604 140.425 620.957 139.514C620.319 138.602 620 137.568 620 136.41H622.639C622.639 137.613 623.081 138.566 623.965 139.268C624.858 139.96 626.048 140.307 627.533 140.307C628.919 140.307 629.98 140.024 630.719 139.459C631.457 138.894 631.826 138.124 631.826 137.148C631.826 136.173 631.484 135.421 630.801 134.893C630.117 134.355 628.878 133.826 627.082 133.307V133.307ZM643.707 133.307C641.456 132.66 639.815 131.867 638.785 130.928C637.764 129.98 637.254 128.813 637.254 127.428C637.254 125.86 637.878 124.566 639.127 123.545C640.385 122.515 642.016 122 644.021 122C645.389 122 646.605 122.264 647.672 122.793C648.747 123.322 649.577 124.051 650.16 124.98C650.753 125.91 651.049 126.926 651.049 128.029H648.41C648.41 126.826 648.027 125.883 647.262 125.199C646.496 124.507 645.416 124.16 644.021 124.16C642.727 124.16 641.715 124.447 640.986 125.021C640.266 125.587 639.906 126.375 639.906 127.387C639.906 128.198 640.248 128.886 640.932 129.451C641.624 130.007 642.796 130.518 644.445 130.982C646.104 131.447 647.398 131.962 648.328 132.527C649.267 133.083 649.96 133.735 650.406 134.482C650.862 135.23 651.09 136.109 651.09 137.121C651.09 138.734 650.461 140.029 649.203 141.004C647.945 141.97 646.264 142.453 644.158 142.453C642.791 142.453 641.515 142.193 640.33 141.674C639.145 141.145 638.229 140.425 637.582 139.514C636.944 138.602 636.625 137.568 636.625 136.41H639.264C639.264 137.613 639.706 138.566 640.59 139.268C641.483 139.96 642.673 140.307 644.158 140.307C645.544 140.307 646.605 140.024 647.344 139.459C648.082 138.894 648.451 138.124 648.451 137.148C648.451 136.173 648.109 135.421 647.426 134.893C646.742 134.355 645.503 133.826 643.707 133.307V133.307ZM657.283 142.18H654.658V122.273H657.283V142.18ZM662.096 142.18V122.273H667.715C669.447 122.273 670.978 122.656 672.309 123.422C673.639 124.188 674.665 125.277 675.385 126.689C676.114 128.102 676.483 129.725 676.492 131.557V132.828C676.492 134.706 676.128 136.351 675.398 137.764C674.678 139.176 673.644 140.261 672.295 141.018C670.955 141.774 669.392 142.161 667.605 142.18H662.096ZM664.721 124.434V140.033H667.482C669.506 140.033 671.078 139.404 672.199 138.146C673.329 136.889 673.895 135.098 673.895 132.773V131.611C673.895 129.351 673.361 127.596 672.295 126.348C671.238 125.09 669.734 124.452 667.783 124.434H664.721ZM690.738 144.244H678.215V142.18H690.738V144.244ZM704.355 132.979H695.729V140.033H705.75V142.18H693.104V122.273H705.613V124.434H695.729V130.832H704.355V132.979ZM713.584 132.787L716.865 127.387H719.818L714.979 134.701L719.969 142.18H717.043L713.625 136.643L710.207 142.18H707.268L712.258 134.701L707.418 127.387H710.344L713.584 132.787V132.787ZM725.943 123.805V127.387H728.705V129.342H725.943V138.516C725.943 139.108 726.066 139.555 726.312 139.855C726.559 140.147 726.978 140.293 727.57 140.293C727.862 140.293 728.263 140.238 728.773 140.129V142.18C728.141 142.357 727.488 142.449 726.832 142.453C725.702 142.453 724.85 142.111 724.275 141.428C723.701 140.744 723.414 139.773 723.414 138.516V129.342H720.721V127.387H723.414V123.805H725.943V123.805Z" fill="#A7A7A7"/>
<path d="M434.958 326.373C434.734 328.29 434.024 329.772 432.829 330.818C431.642 331.855 430.06 332.374 428.085 332.374C425.943 332.374 424.225 331.606 422.93 330.071C421.643 328.535 421 326.48 421 323.907V322.164C421 320.479 421.299 318.997 421.896 317.719C422.502 316.441 423.357 315.461 424.461 314.781C425.565 314.092 426.844 313.747 428.296 313.747C430.222 313.747 431.766 314.287 432.928 315.366C434.09 316.437 434.767 317.922 434.958 319.823H432.555C432.347 318.379 431.895 317.333 431.198 316.686C430.509 316.038 429.542 315.714 428.296 315.714C426.769 315.714 425.57 316.279 424.698 317.408C423.835 318.537 423.403 320.143 423.403 322.226V323.982C423.403 325.949 423.814 327.514 424.636 328.676C425.458 329.838 426.607 330.419 428.085 330.419C429.413 330.419 430.43 330.12 431.135 329.523C431.849 328.917 432.322 327.867 432.555 326.373H434.958Z" fill="#A7A7A7"/>
<path d="M437.261 325.264C437.261 323.945 437.519 322.758 438.033 321.703C438.556 320.649 439.278 319.836 440.2 319.263C441.129 318.69 442.188 318.404 443.375 318.404C445.209 318.404 446.691 319.039 447.82 320.309C448.957 321.579 449.526 323.268 449.526 325.376V325.538C449.526 326.85 449.272 328.029 448.766 329.074C448.268 330.112 447.55 330.921 446.612 331.502C445.682 332.083 444.612 332.374 443.4 332.374C441.573 332.374 440.092 331.739 438.955 330.469C437.826 329.199 437.261 327.518 437.261 325.426V325.264ZM439.577 325.538C439.577 327.032 439.922 328.232 440.611 329.137C441.308 330.042 442.238 330.494 443.4 330.494C444.57 330.494 445.5 330.037 446.189 329.124C446.878 328.203 447.222 326.916 447.222 325.264C447.222 323.787 446.869 322.592 446.164 321.678C445.467 320.757 444.537 320.296 443.375 320.296C442.238 320.296 441.32 320.749 440.623 321.654C439.926 322.558 439.577 323.853 439.577 325.538Z" fill="#A7A7A7"/>
<path d="M454.593 318.653L454.668 320.346C455.697 319.051 457.042 318.404 458.702 318.404C461.549 318.404 462.985 320.01 463.01 323.222V332.125H460.707V323.21C460.698 322.239 460.474 321.521 460.034 321.056C459.603 320.591 458.926 320.359 458.005 320.359C457.258 320.359 456.602 320.558 456.038 320.956C455.473 321.355 455.033 321.878 454.718 322.525V332.125H452.414V318.653H454.593Z" fill="#A7A7A7"/>
<path d="M469.609 315.391V318.653H472.125V320.433H469.609V328.788C469.609 329.328 469.721 329.734 469.946 330.008C470.17 330.274 470.552 330.407 471.091 330.407C471.357 330.407 471.722 330.357 472.187 330.257V332.125C471.581 332.291 470.991 332.374 470.419 332.374C469.389 332.374 468.613 332.063 468.09 331.44C467.567 330.818 467.306 329.934 467.306 328.788V320.433H464.853V318.653H467.306V315.391H469.609Z" fill="#A7A7A7"/>
<path d="M481.338 320.72C480.99 320.662 480.612 320.633 480.205 320.633C478.695 320.633 477.669 321.276 477.13 322.562V332.125H474.826V318.653H477.068L477.105 320.209C477.86 319.006 478.931 318.404 480.317 318.404C480.766 318.404 481.106 318.462 481.338 318.578V320.72Z" fill="#A7A7A7"/>
<path d="M482.608 325.264C482.608 323.945 482.866 322.758 483.38 321.703C483.903 320.649 484.625 319.836 485.547 319.263C486.477 318.69 487.535 318.404 488.722 318.404C490.556 318.404 492.038 319.039 493.167 320.309C494.304 321.579 494.873 323.268 494.873 325.376V325.538C494.873 326.85 494.62 328.029 494.113 329.074C493.615 330.112 492.897 330.921 491.959 331.502C491.03 332.083 489.959 332.374 488.747 332.374C486.921 332.374 485.439 331.739 484.302 330.469C483.173 329.199 482.608 327.518 482.608 325.426V325.264ZM484.924 325.538C484.924 327.032 485.269 328.232 485.958 329.137C486.655 330.042 487.585 330.494 488.747 330.494C489.917 330.494 490.847 330.037 491.536 329.124C492.225 328.203 492.569 326.916 492.569 325.264C492.569 323.787 492.217 322.592 491.511 321.678C490.814 320.757 489.884 320.296 488.722 320.296C487.585 320.296 486.667 320.749 485.97 321.654C485.273 322.558 484.924 323.853 484.924 325.538Z" fill="#A7A7A7"/>
<path d="M500.264 332.125H497.961V313H500.264V332.125Z" fill="#A7A7A7"/>
<path d="M506.465 332.125H504.161V313H506.465V332.125Z" fill="#A7A7A7"/>
<path d="M515.753 332.374C513.927 332.374 512.441 331.776 511.296 330.581C510.15 329.377 509.578 327.771 509.578 325.762V325.339C509.578 324.003 509.831 322.812 510.337 321.766C510.852 320.711 511.566 319.89 512.479 319.3C513.4 318.703 514.396 318.404 515.467 318.404C517.219 318.404 518.58 318.981 519.551 320.135C520.522 321.288 521.008 322.94 521.008 325.09V326.049H511.881C511.914 327.377 512.3 328.452 513.039 329.274C513.786 330.087 514.732 330.494 515.878 330.494C516.691 330.494 517.38 330.328 517.945 329.996C518.509 329.664 519.003 329.224 519.427 328.676L520.833 329.772C519.705 331.507 518.011 332.374 515.753 332.374ZM515.467 320.296C514.537 320.296 513.757 320.637 513.126 321.317C512.495 321.99 512.105 322.936 511.956 324.156H518.704V323.982C518.638 322.812 518.323 321.907 517.758 321.268C517.194 320.62 516.43 320.296 515.467 320.296Z" fill="#A7A7A7"/>
<path d="M530.197 320.72C529.848 320.662 529.47 320.633 529.064 320.633C527.553 320.633 526.528 321.276 525.988 322.562V332.125H523.685V318.653H525.926L525.963 320.209C526.719 319.006 527.79 318.404 529.176 318.404C529.624 318.404 529.964 318.462 530.197 318.578V320.72Z" fill="#A7A7A7"/>
</svg>
