<svg width="930" height="318" viewBox="0 0 930 318" fill="none" xmlns="http://www.w3.org/2000/svg">
<path d="M127.3 227.3C123.4 209.4 107.5 196 88.5 196C74.3 196 61.8 203.5 54.8 214.7C51.6 212.7 47.8 211.5 43.7 211.5C34.2 211.5 26.1 217.8 23.5 226.5C10.4 227.2 0 238 0 251.3C0 265 11.1 276.1 24.8 276.1H121.1C134.8 276.1 145.9 265 145.9 251.3C145.8 239.8 138 230.1 127.3 227.3V227.3ZM121 271.2H24.7C13.8 271.2 4.9 262.3 4.9 251.4C4.9 240.8 13.2 232.1 23.7 231.6L27.2 231.4L28.2 228C30.3 221.2 36.5 216.6 43.7 216.6C46.7 216.6 49.6 217.4 52.1 219L56.3 221.6L58.9 217.4C65.3 207.1 76.3 201 88.4 201C104.7 201 118.9 212.5 122.3 228.4L122.9 231.4L125.9 232.2C134.6 234.5 140.7 242.4 140.7 251.4C140.8 262.3 132 271.2 121 271.2V271.2Z" fill="#444444"/>
<path d="M48.8819 239.805L53.8119 253.727L58.7169 239.805H63.9109V259H59.9429V253.753L60.3379 244.696L55.1579 259H52.4399L47.2719 244.709L47.6679 253.753V259H43.7129V239.805H48.8809H48.8819ZM73.6799 259.264C71.5879 259.264 69.8829 258.622 68.5649 257.339C67.2549 256.056 66.6009 254.346 66.6009 252.21V251.841C66.6009 250.409 66.8769 249.13 67.4309 248.005C67.9849 246.871 68.7669 246.001 69.7779 245.395C70.7979 244.779 71.9579 244.472 73.2579 244.472C75.2099 244.472 76.7429 245.087 77.8589 246.317C78.9839 247.548 79.5469 249.292 79.5469 251.551V253.107H70.4629C70.5859 254.039 70.9559 254.786 71.5709 255.348C72.1949 255.911 72.9809 256.192 73.9309 256.192C75.3979 256.192 76.5449 255.66 77.3709 254.597L79.2439 256.693C78.6719 257.501 77.8989 258.134 76.9239 258.591C75.9479 259.04 74.8669 259.264 73.6799 259.264V259.264ZM73.2449 247.557C72.4889 247.557 71.8739 247.812 71.3989 248.321C70.9339 248.831 70.6349 249.561 70.5029 250.51H75.8029V250.207C75.7849 249.363 75.5569 248.712 75.1169 248.255C74.6769 247.79 74.0539 247.557 73.2449 247.557V247.557ZM89.4479 255.058C89.4479 254.592 89.2149 254.228 88.7489 253.964C88.2919 253.691 87.5539 253.45 86.5339 253.239C83.1419 252.527 81.4449 251.085 81.4449 248.915C81.4449 247.649 81.9679 246.594 83.0149 245.75C84.0689 244.898 85.4449 244.472 87.1409 244.472C88.9509 244.472 90.3969 244.898 91.4779 245.75C92.5679 246.603 93.1129 247.71 93.1129 249.073H89.3029C89.3029 248.528 89.1269 248.08 88.7749 247.728C88.4239 247.368 87.8749 247.188 87.1269 247.188C86.4859 247.188 85.9889 247.333 85.6369 247.623C85.2869 247.913 85.1099 248.282 85.1099 248.73C85.1099 249.152 85.3079 249.495 85.7039 249.758C86.1079 250.013 86.7839 250.237 87.7339 250.431C88.6839 250.615 89.4829 250.826 90.1339 251.063C92.1459 251.802 93.1519 253.081 93.1519 254.9C93.1519 256.201 92.5939 257.255 91.4779 258.064C90.3619 258.864 88.9199 259.264 87.1539 259.264C85.9589 259.264 84.8949 259.053 83.9639 258.631C83.0399 258.2 82.3149 257.616 81.7879 256.877C81.2609 256.13 80.9979 255.326 80.9979 254.465H84.6089C84.6439 255.142 84.8949 255.66 85.3609 256.021C85.8269 256.381 86.4509 256.561 87.2329 256.561C87.9629 256.561 88.5119 256.425 88.8809 256.152C89.2589 255.871 89.4479 255.506 89.4479 255.058V255.058ZM99.3349 246.291C100.346 245.078 101.616 244.472 103.146 244.472C106.239 244.472 107.808 246.269 107.852 249.864V259H104.042V249.969C104.042 249.152 103.866 248.55 103.515 248.163C103.163 247.768 102.579 247.57 101.761 247.57C100.645 247.57 99.8359 248 99.3349 248.862V259H95.5249V238.75H99.3349V246.291V246.291Z" fill="#444444"/>
<path d="M529 245.5C531.7 245.5 534.3 246.2 536.5 247.3L530.8 238.2C528.3 234.6 523.9 230.9 519.9 230.9H444.9C440.9 230.9 436.5 234 434 238.2L428.3 247.3C430.5 246.1 433.1 245.5 435.8 245.5H529ZM542.7 259.4C541.5 252.9 535.8 247.9 529 247.9H435.9C429.1 247.9 423.4 252.9 422.2 259.4C422.1 260.2 422 261 422 261.9C422 269.6 428.3 275.8 435.9 275.8H529C536.7 275.8 542.9 269.5 542.9 261.9C542.9 261 542.8 260.2 542.7 259.4V259.4ZM442.6 262.4C442.6 264.4 441 266.1 438.9 266.1H434.6C432.6 266.1 430.9 264.5 430.9 262.4C430.9 260.4 432.5 258.7 434.6 258.7H438.9C440.9 258.8 442.6 260.4 442.6 262.4ZM459.6 262.4C459.6 264.4 458 266.1 455.9 266.1H451.6C449.6 266.1 447.9 264.5 447.9 262.4C447.9 260.4 449.5 258.7 451.6 258.7H455.9C457.9 258.8 459.6 260.4 459.6 262.4ZM495.9 264.9C494.5 264.9 493.4 263.8 493.4 262.4C493.4 261 494.5 259.9 495.9 259.9C497.3 259.9 498.4 261 498.4 262.4C498.4 263.8 497.2 264.9 495.9 264.9ZM504.3 264.9C502.9 264.9 501.8 263.8 501.8 262.4C501.8 261 502.9 259.9 504.3 259.9C505.7 259.9 506.8 261 506.8 262.4C506.8 263.8 505.7 264.9 504.3 264.9ZM512.8 264.9C511.4 264.9 510.3 263.8 510.3 262.4C510.3 261 511.4 259.9 512.8 259.9C514.2 259.9 515.3 261 515.3 262.4C515.3 263.8 514.2 264.9 512.8 264.9ZM521.3 264.9C519.9 264.9 518.8 263.8 518.8 262.4C518.8 261 519.9 259.9 521.3 259.9C522.7 259.9 523.8 261 523.8 262.4C523.8 263.8 522.6 264.9 521.3 264.9ZM529.7 264.9C528.3 264.9 527.2 263.8 527.2 262.4C527.2 261 528.3 259.9 529.7 259.9C531.1 259.9 532.2 261 532.2 262.4C532.2 263.8 531.1 264.9 529.7 264.9ZM454.2 228.5L453 179.8V179.7C452.9 178.2 451.7 177 450.2 177C448.7 177 447.5 178.2 447.4 179.7V179.8L446.2 228.5H454.2V228.5ZM518.6 228.5L517.4 179.8V179.7C517.3 178.2 516.1 177 514.6 177C513.1 177 511.9 178.2 511.8 179.7V179.8L510.6 228.5H518.6V228.5Z" fill="#434343"/>
<path d="M880.5 206H812.5C807.8 206 804 209.8 804 214.5V254.3C804 259 807.8 262.8 812.5 262.8H835.7V268.7H823.7C821.8 268.7 820.2 270.3 820.2 272.2C820.2 274.1 821.8 275.7 823.7 275.7H865.7C867.6 275.7 869.2 274.1 869.2 272.2C869.2 270.3 867.6 268.7 865.7 268.7H853.7V262.8H880.5C885.2 262.8 889 259 889 254.3V214.5C889 209.8 885.2 206 880.5 206ZM884 254.3C884 256.2 882.4 257.8 880.5 257.8H812.5C810.6 257.8 809 256.2 809 254.3V214.5C809 212.6 810.6 211 812.5 211H880.5C882.4 211 884 212.6 884 214.5V254.3ZM923 206H900.3C896.5 206 893.3 209.2 893.3 213V267.2C893.3 271 896.5 274.2 900.3 274.2H923C926.8 274.2 930 271 930 267.2V213C930 209.1 926.8 206 923 206ZM911.2 262.9C908.5 262.9 906.3 260.7 906.3 258C906.3 255.3 908.5 253.1 911.2 253.1C913.9 253.1 916.1 255.3 916.1 258C916.1 260.7 913.9 262.9 911.2 262.9ZM925.2 229.3C925.2 231 923.8 232.3 922.2 232.3H901.1C899.4 232.3 898.1 231 898.1 229.3V227.8C898.1 226.1 899.4 224.8 901.1 224.8H922.2C923.8 224.8 925.2 226.1 925.2 227.8V229.3ZM925.2 217.3C925.2 219 923.8 220.3 922.2 220.3H901.1C899.4 220.3 898.1 219 898.1 217.3V215.8C898.1 214.1 899.4 212.8 901.1 212.8H922.2C923.8 212.8 925.2 214.1 925.2 215.8V217.3ZM900.9 58.4L900.6 57.8C899 54.5 897.7 51.6 894.4 50.7C896 49.1 897.1 46.8 897.1 44.3V8.5C897.1 3.8 893.3 0 888.6 0H820.6C815.9 0 812.1 3.8 812.1 8.5V44.3C812.1 46.9 813.2 49.1 815.1 50.6C811.3 51.6 809.7 55.2 808.3 58.4L804 67.7V68.2C804 71.1 804 77.1 811.5 77.1H899.6C903.5 77.1 905.4 74.1 905.4 68.2V67.6L900.9 58.4V58.4ZM872.2 58V59C872.2 60.1 871.3 61 870.2 61H868.3C867.2 61 866.3 60.1 866.3 59V58C866.3 56.9 867.2 56 868.3 56H870.2C871.3 56 872.2 56.9 872.2 58ZM864.3 57.9V58.9C864.3 60 863.4 60.9 862.3 60.9H860.4C859.3 60.9 858.4 60 858.4 58.9V57.9C858.4 56.8 859.3 55.9 860.4 55.9H862.3C863.4 55.9 864.3 56.8 864.3 57.9ZM856.3 57.9V58.9C856.3 60 855.4 60.9 854.3 60.9H852.4C851.3 60.9 850.4 60 850.4 58.9V57.9C850.4 56.8 851.3 55.9 852.4 55.9H854.3C855.4 55.9 856.3 56.8 856.3 57.9ZM848.3 57.9V58.9C848.3 60 847.4 60.9 846.3 60.9H844.4C843.3 60.9 842.4 60 842.4 58.9V57.9C842.4 56.8 843.3 55.9 844.4 55.9H846.3C847.4 55.9 848.3 56.8 848.3 57.9ZM840.3 57.9V58.9C840.3 60 839.4 60.9 838.3 60.9H836.4C835.3 60.9 834.4 60 834.4 58.9V57.9C834.4 56.8 835.3 55.9 836.4 55.9H838.3C839.4 55.9 840.3 56.8 840.3 57.9ZM817.1 8.5C817.1 6.6 818.7 5 820.6 5H888.6C890.5 5 892.1 6.6 892.1 8.5V44.3C892.1 46.3 890.5 47.8 889.6 47.8H821.6C818.9 47.8 817.1 46.4 817.1 44.3V8.5ZM820.2 67C820.2 68.1 819.3 69 818.2 69H816.3C815.2 69 814.3 68.1 814.3 67V66C814.3 64.9 815.2 64 816.3 64H818.2C819.3 64 820.2 64.9 820.2 66V67ZM820.4 60.9C819.3 60.9 818.4 60 818.4 58.9V57.9C818.4 56.8 819.3 55.9 820.4 55.9H822.3C823.4 55.9 824.3 56.8 824.3 57.9V58.9C824.3 60 823.4 60.9 822.3 60.9H820.4ZM828.2 67C828.2 68.1 827.3 69 826.2 69H824.3C823.2 69 822.3 68.1 822.3 67V66C822.3 64.9 823.2 64 824.3 64H826.2C827.3 64 828.2 64.9 828.2 66V67ZM828.4 60.9C827.3 60.9 826.4 60 826.4 58.9V57.9C826.4 56.8 827.3 55.9 828.4 55.9H830.3C831.4 55.9 832.3 56.8 832.3 57.9V58.9C832.3 60 831.4 60.9 830.3 60.9H828.4ZM876.2 67C876.2 68.1 875.3 69 874.2 69H832.3C831.2 69 830.3 68.1 830.3 67V66C830.3 64.9 831.2 64 832.3 64H874.2C875.3 64 876.2 64.9 876.2 66V67ZM876.3 61C875.2 61 874.3 60.1 874.3 59V58C874.3 56.9 875.2 56 876.3 56H878.2C879.3 56 880.2 56.9 880.2 58V59C880.2 60.1 879.3 61 878.2 61H876.3ZM884.2 67C884.2 68.1 883.3 69 882.2 69H880.3C879.2 69 878.3 68.1 878.3 67V66C878.3 64.9 879.2 64 880.3 64H882.2C883.3 64 884.2 64.9 884.2 66V67ZM884.3 61C883.2 61 882.3 60.1 882.3 59V58C882.3 56.9 883.2 56 884.3 56H886.2C887.3 56 888.2 56.9 888.2 58V59C888.2 60.1 887.3 61 886.2 61H884.3ZM892.2 67C892.2 68.1 891.3 69 890.2 69H888.3C887.2 69 886.3 68.1 886.3 67V66C886.3 64.9 887.2 64 888.3 64H890.2C891.3 64 892.2 64.9 892.2 66V67Z" fill="#444444"/>
<path d="M429.791 191.164C430.357 191.73 431.347 191.73 431.912 191.164C432.478 190.599 432.478 189.609 431.912 189.043C425.124 182.255 425.053 171.153 431.912 164.294C432.478 163.729 432.478 162.739 431.912 162.173C431.347 161.607 430.357 161.607 429.791 162.173C421.801 170.163 421.801 183.174 429.791 191.164ZM419.821 201.135C406.315 187.629 406.315 165.709 419.821 152.203C420.387 151.637 420.387 150.647 419.821 150.082C419.255 149.516 418.265 149.516 417.7 150.082C403.062 164.719 403.062 188.619 417.7 203.256C418.265 203.822 419.255 203.822 419.821 203.256C420.387 202.69 420.387 201.7 419.821 201.135V201.135Z" fill="#B7B7B7"/>
<path d="M407.729 213.226C387.577 193.074 387.648 160.334 407.729 140.253C408.295 139.687 408.295 138.697 407.729 138.131C407.164 137.566 406.174 137.566 405.608 138.131C384.324 159.415 384.324 194.063 405.608 215.347C406.174 215.913 407.164 215.913 407.729 215.347C408.295 214.782 408.295 213.792 407.729 213.226V213.226ZM531.617 161.244C531.051 160.678 530.061 160.678 529.496 161.244C528.93 161.809 528.93 162.799 529.496 163.365C536.284 170.153 536.355 181.255 529.496 188.114C528.93 188.679 528.93 189.669 529.496 190.235C530.061 190.801 531.051 190.801 531.617 190.235C539.607 182.245 539.607 169.234 531.617 161.244V161.244ZM541.587 151.273C555.093 164.779 555.093 186.699 541.587 200.205C541.022 200.771 541.022 201.761 541.587 202.327C542.153 202.892 543.143 202.892 543.709 202.327C558.346 187.689 558.346 163.789 543.709 149.152C543.143 148.586 542.153 148.586 541.587 149.152C541.022 149.718 541.022 150.708 541.587 151.273Z" fill="#B7B7B7"/>
<path d="M553.679 139.182C573.831 159.335 573.761 192.074 553.679 212.155C553.113 212.721 553.113 213.711 553.679 214.277C554.245 214.842 555.234 214.842 555.8 214.277C577.084 192.993 577.084 158.345 555.8 137.061C555.234 136.495 554.245 136.495 553.679 137.061C553.113 137.626 553.113 138.616 553.679 139.182ZM133.617 168.244C133.051 167.678 132.061 167.678 131.496 168.244C130.93 168.809 130.93 169.799 131.496 170.365C138.284 177.153 138.355 188.255 131.496 195.114C130.93 195.679 130.93 196.669 131.496 197.235C132.061 197.801 133.051 197.801 133.617 197.235C141.607 189.245 141.607 176.234 133.617 168.244V168.244ZM143.587 158.273C157.093 171.779 157.093 193.699 143.587 207.205C143.021 207.771 143.021 208.761 143.587 209.327C144.153 209.892 145.143 209.892 145.708 209.327C160.346 194.689 160.346 170.789 145.709 156.152C145.143 155.586 144.153 155.586 143.587 156.152C143.022 156.718 143.022 157.708 143.587 158.273V158.273Z" fill="#B7B7B7"/>
<path d="M155.679 146.182C175.831 166.335 175.761 199.074 155.679 219.155C155.113 219.721 155.113 220.711 155.679 221.277C156.244 221.842 157.234 221.842 157.8 221.277C179.084 199.993 179.084 165.345 157.8 144.061C157.234 143.495 156.244 143.495 155.679 144.061C155.113 144.626 155.113 145.616 155.679 146.182Z" fill="#B7B7B7"/>
<path d="M219.701 167.094L226.209 183.336L232.717 167.094H236.121V187H233.496V179.248L233.742 170.881L227.207 187H225.197L218.676 170.922L218.936 179.248V187H216.311V167.094H219.701ZM246.498 187.273C244.493 187.273 242.861 186.617 241.604 185.305C240.346 183.983 239.717 182.219 239.717 180.014V179.549C239.717 178.081 239.995 176.773 240.551 175.625C241.116 174.467 241.9 173.565 242.902 172.918C243.875 172.274 245.017 171.931 246.184 171.934C248.107 171.934 249.602 172.567 250.668 173.834C251.734 175.101 252.268 176.915 252.268 179.275V180.328H242.246C242.283 181.786 242.706 182.967 243.518 183.869C244.338 184.762 245.377 185.209 246.635 185.209C247.528 185.209 248.285 185.027 248.904 184.662C249.534 184.288 250.087 183.796 250.531 183.213L252.076 184.416C250.837 186.321 248.977 187.273 246.498 187.273ZM246.184 174.012C245.163 174.012 244.306 174.385 243.613 175.133C242.921 175.871 242.492 176.91 242.328 178.25H249.738V178.059C249.665 176.773 249.319 175.78 248.699 175.078C248.079 174.367 247.241 174.012 246.184 174.012V174.012ZM263.82 183.076C263.82 182.393 263.561 181.864 263.041 181.49C262.531 181.107 261.633 180.779 260.348 180.506C259.072 180.232 258.055 179.904 257.299 179.521C256.551 179.139 255.995 178.683 255.631 178.154C255.275 177.626 255.098 176.997 255.098 176.268C255.098 175.055 255.608 174.03 256.629 173.191C257.659 172.353 258.971 171.934 260.566 171.934C262.243 171.934 263.602 172.367 264.641 173.232C265.689 174.098 266.213 175.206 266.213 176.555H263.67C263.67 175.862 263.374 175.265 262.781 174.764C262.198 174.262 261.46 174.012 260.566 174.012C259.646 174.012 258.926 174.212 258.406 174.613C257.887 175.014 257.627 175.538 257.627 176.186C257.627 176.796 257.868 177.257 258.352 177.566C258.835 177.876 259.705 178.173 260.963 178.455C262.23 178.738 263.255 179.075 264.039 179.467C264.823 179.859 265.402 180.333 265.775 180.889C266.158 181.436 266.35 182.105 266.35 182.898C266.35 184.22 265.821 185.282 264.764 186.084C263.706 186.877 262.335 187.273 260.648 187.273C259.464 187.273 258.415 187.064 257.504 186.645C256.592 186.225 255.877 185.642 255.357 184.895C254.859 184.176 254.592 183.322 254.592 182.447H257.121C257.167 183.295 257.504 183.969 258.133 184.471C258.771 184.963 259.609 185.209 260.648 185.209C261.605 185.209 262.371 185.018 262.945 184.635C263.529 184.243 263.82 183.723 263.82 183.076V183.076ZM272.174 173.998C273.295 172.622 274.753 171.934 276.549 171.934C279.675 171.934 281.252 173.697 281.279 177.225V187H278.75V177.211C278.741 176.145 278.495 175.356 278.012 174.846C277.538 174.335 276.795 174.08 275.783 174.08C274.963 174.08 274.243 174.299 273.623 174.736C273 175.177 272.502 175.77 272.174 176.459V187H269.645V166H272.174V173.998ZM298.273 178.127C296.022 177.48 294.382 176.687 293.352 175.748C292.331 174.8 291.82 173.633 291.82 172.248C291.82 170.68 292.445 169.386 293.693 168.365C294.951 167.335 296.583 166.82 298.588 166.82C299.955 166.82 301.172 167.085 302.238 167.613C303.314 168.142 304.143 168.871 304.727 169.801C305.319 170.73 305.615 171.747 305.615 172.85H302.977C302.977 171.646 302.594 170.703 301.828 170.02C301.062 169.327 299.982 168.98 298.588 168.98C297.294 168.98 296.282 169.268 295.553 169.842C294.833 170.407 294.473 171.195 294.473 172.207C294.473 173.018 294.814 173.706 295.498 174.271C296.191 174.827 297.362 175.338 299.012 175.803C300.671 176.268 301.965 176.783 302.895 177.348C303.833 177.904 304.526 178.555 304.973 179.303C305.428 180.05 305.656 180.93 305.656 181.941C305.656 183.555 305.027 184.849 303.77 185.824C302.512 186.79 300.83 187.273 298.725 187.273C297.357 187.273 296.081 187.014 294.896 186.494C293.712 185.965 292.796 185.245 292.148 184.334C291.51 183.423 291.191 182.388 291.191 181.23H293.83C293.83 182.434 294.272 183.386 295.156 184.088C296.049 184.781 297.239 185.127 298.725 185.127C300.11 185.127 301.172 184.844 301.91 184.279C302.648 183.714 303.018 182.944 303.018 181.969C303.018 180.993 302.676 180.242 301.992 179.713C301.309 179.175 300.069 178.646 298.273 178.127V178.127ZM314.898 178.127C312.647 177.48 311.007 176.687 309.977 175.748C308.956 174.8 308.445 173.633 308.445 172.248C308.445 170.68 309.07 169.386 310.318 168.365C311.576 167.335 313.208 166.82 315.213 166.82C316.58 166.82 317.797 167.085 318.863 167.613C319.939 168.142 320.768 168.871 321.352 169.801C321.944 170.73 322.24 171.747 322.24 172.85H319.602C319.602 171.646 319.219 170.703 318.453 170.02C317.688 169.327 316.607 168.98 315.213 168.98C313.919 168.98 312.907 169.268 312.178 169.842C311.458 170.407 311.098 171.195 311.098 172.207C311.098 173.018 311.439 173.706 312.123 174.271C312.816 174.827 313.987 175.338 315.637 175.803C317.296 176.268 318.59 176.783 319.52 177.348C320.458 177.904 321.151 178.555 321.598 179.303C322.053 180.05 322.281 180.93 322.281 181.941C322.281 183.555 321.652 184.849 320.395 185.824C319.137 186.79 317.455 187.273 315.35 187.273C313.982 187.273 312.706 187.014 311.521 186.494C310.337 185.965 309.421 185.245 308.773 184.334C308.135 183.423 307.816 182.388 307.816 181.23H310.455C310.455 182.434 310.897 183.386 311.781 184.088C312.674 184.781 313.864 185.127 315.35 185.127C316.735 185.127 317.797 184.844 318.535 184.279C319.273 183.714 319.643 182.944 319.643 181.969C319.643 180.993 319.301 180.242 318.617 179.713C317.934 179.175 316.694 178.646 314.898 178.127V178.127ZM328.475 187H325.85V167.094H328.475V187ZM333.287 187V167.094H338.906C340.638 167.094 342.169 167.477 343.5 168.242C344.831 169.008 345.856 170.097 346.576 171.51C347.305 172.923 347.674 174.545 347.684 176.377V177.648C347.684 179.526 347.319 181.171 346.59 182.584C345.87 183.997 344.835 185.081 343.486 185.838C342.146 186.594 340.583 186.982 338.797 187H333.287V187ZM335.912 169.254V184.854H338.674C340.697 184.854 342.27 184.225 343.391 182.967C344.521 181.709 345.086 179.918 345.086 177.594V176.432C345.086 174.171 344.553 172.417 343.486 171.168C342.429 169.91 340.925 169.272 338.975 169.254H335.912V169.254ZM638.176 140.127C635.924 139.48 634.284 138.687 633.254 137.748C632.233 136.8 631.723 135.633 631.723 134.248C631.723 132.68 632.347 131.386 633.596 130.365C634.854 129.335 636.485 128.82 638.49 128.82C639.857 128.82 641.074 129.085 642.141 129.613C643.216 130.142 644.046 130.871 644.629 131.801C645.221 132.73 645.518 133.747 645.518 134.85H642.879C642.879 133.646 642.496 132.703 641.73 132.02C640.965 131.327 639.885 130.98 638.49 130.98C637.196 130.98 636.184 131.268 635.455 131.842C634.735 132.407 634.375 133.195 634.375 134.207C634.375 135.018 634.717 135.706 635.4 136.271C636.093 136.827 637.264 137.338 638.914 137.803C640.573 138.268 641.867 138.783 642.797 139.348C643.736 139.904 644.428 140.555 644.875 141.303C645.331 142.05 645.559 142.93 645.559 143.941C645.559 145.555 644.93 146.849 643.672 147.824C642.414 148.79 640.732 149.273 638.627 149.273C637.26 149.273 635.984 149.014 634.799 148.494C633.614 147.965 632.698 147.245 632.051 146.334C631.413 145.423 631.094 144.388 631.094 143.23H633.732C633.732 144.434 634.174 145.386 635.059 146.088C635.952 146.781 637.141 147.127 638.627 147.127C640.012 147.127 641.074 146.844 641.812 146.279C642.551 145.714 642.92 144.944 642.92 143.969C642.92 142.993 642.578 142.242 641.895 141.713C641.211 141.175 639.971 140.646 638.176 140.127ZM654.801 140.127C652.549 139.48 650.909 138.687 649.879 137.748C648.858 136.8 648.348 135.633 648.348 134.248C648.348 132.68 648.972 131.386 650.221 130.365C651.479 129.335 653.11 128.82 655.115 128.82C656.482 128.82 657.699 129.085 658.766 129.613C659.841 130.142 660.671 130.871 661.254 131.801C661.846 132.73 662.143 133.747 662.143 134.85H659.504C659.504 133.646 659.121 132.703 658.355 132.02C657.59 131.327 656.51 130.98 655.115 130.98C653.821 130.98 652.809 131.268 652.08 131.842C651.36 132.407 651 133.195 651 134.207C651 135.018 651.342 135.706 652.025 136.271C652.718 136.827 653.889 137.338 655.539 137.803C657.198 138.268 658.492 138.783 659.422 139.348C660.361 139.904 661.053 140.555 661.5 141.303C661.956 142.05 662.184 142.93 662.184 143.941C662.184 145.555 661.555 146.849 660.297 147.824C659.039 148.79 657.357 149.273 655.252 149.273C653.885 149.273 652.609 149.014 651.424 148.494C650.239 147.965 649.323 147.245 648.676 146.334C648.038 145.423 647.719 144.388 647.719 143.23H650.357C650.357 144.434 650.799 145.386 651.684 146.088C652.577 146.781 653.766 147.127 655.252 147.127C656.637 147.127 657.699 146.844 658.438 146.279C659.176 145.714 659.545 144.944 659.545 143.969C659.545 142.993 659.203 142.242 658.52 141.713C657.836 141.175 656.596 140.646 654.801 140.127V140.127ZM668.377 149H665.752V129.094H668.377V149ZM673.189 149V129.094H678.809C680.54 129.094 682.072 129.477 683.402 130.242C684.733 131.008 685.758 132.097 686.479 133.51C687.208 134.923 687.577 136.545 687.586 138.377V139.648C687.586 141.526 687.221 143.171 686.492 144.584C685.772 145.997 684.738 147.081 683.389 147.838C682.049 148.594 680.486 148.982 678.699 149H673.189V149ZM675.814 131.254V146.854H678.576C680.6 146.854 682.172 146.225 683.293 144.967C684.423 143.709 684.988 141.918 684.988 139.594V138.432C684.988 136.171 684.455 134.417 683.389 133.168C682.331 131.91 680.827 131.272 678.877 131.254H675.814Z" fill="#A7A7A7"/>
<path d="M365.639 266.76H375.072V268.906H363V249H365.639V266.76ZM389.332 263.711H380.992L379.119 268.906H376.412L384.014 249H386.311L393.926 268.906H391.232L389.332 263.711V263.711ZM381.785 261.551H388.553L385.162 252.24L381.785 261.551V261.551ZM411.904 268.906H409.266L399.244 253.566V268.906H396.605V249H399.244L409.293 264.408V249H411.904V268.906ZM558.639 266.76H568.072V268.906H556V249H558.639V266.76ZM582.332 263.711H573.992L572.119 268.906H569.412L577.014 249H579.311L586.926 268.906H584.232L582.332 263.711V263.711ZM574.785 261.551H581.553L578.162 252.24L574.785 261.551V261.551ZM604.904 268.906H602.266L592.244 253.566V268.906H589.605V249H592.244L602.293 264.408V249H604.904V268.906V268.906Z" fill="#434343"/>
<path d="M792.6 88C793.4 88 794.1 87.3 794.1 86.5C794.1 85.7 793.4 85 792.6 85C783 85 775.1 77.2 775.1 67.5C775.1 66.7 774.4 66 773.6 66C772.8 66 772.1 66.7 772.1 67.5C772.1 78.8 781.3 88 792.6 88ZM792.6 102.1C773.5 102.1 758 86.6 758 67.5C758 66.7 757.3 66 756.5 66C755.7 66 755 66.7 755 67.5C755 88.2 771.9 105.1 792.6 105.1C793.4 105.1 794.1 104.4 794.1 103.6C794.1 102.8 793.4 102.1 792.6 102.1Z" fill="#B7B7B7"/>
<path d="M792.6 119.2C764.1 119.2 741 96 741 67.6C741 66.8 740.3 66.1 739.5 66.1C738.7 66.1 738 66.8 738 67.6C738 97.7 762.5 122.2 792.6 122.2C793.4 122.2 794.1 121.5 794.1 120.7C794.1 119.9 793.4 119.2 792.6 119.2V119.2Z" fill="#B7B7B7"/>
<path d="M152 257.5H350M615 257.5H796H615Z" stroke="#B7B7B7" stroke-width="3"/>
<path d="M460.766 305.397H453.171L451.465 310.129H449L455.923 292H458.015L464.95 310.129H462.497L460.766 305.397ZM453.893 303.43H460.057L456.969 294.951L453.893 303.43Z" fill="#A7A7A7"/>
<path d="M466.481 303.281C466.481 301.181 466.967 299.512 467.938 298.275C468.909 297.03 470.196 296.408 471.798 296.408C473.442 296.408 474.724 296.989 475.646 298.151L475.758 296.657H477.862V309.805C477.862 311.548 477.343 312.922 476.305 313.927C475.276 314.931 473.89 315.433 472.147 315.433C471.176 315.433 470.225 315.226 469.295 314.811C468.366 314.396 467.656 313.827 467.166 313.105L468.362 311.723C469.349 312.943 470.557 313.553 471.985 313.553C473.105 313.553 473.977 313.238 474.6 312.607C475.23 311.976 475.546 311.088 475.546 309.942V308.784C474.625 309.847 473.367 310.378 471.773 310.378C470.196 310.378 468.918 309.743 467.938 308.473C466.967 307.203 466.481 305.472 466.481 303.281ZM468.797 303.542C468.797 305.061 469.109 306.257 469.731 307.128C470.354 307.991 471.225 308.423 472.346 308.423C473.799 308.423 474.865 307.763 475.546 306.443V300.292C474.84 299.006 473.782 298.363 472.371 298.363C471.25 298.363 470.375 298.798 469.744 299.67C469.113 300.542 468.797 301.832 468.797 303.542Z" fill="#A7A7A7"/>
<path d="M486.939 310.378C485.113 310.378 483.627 309.78 482.481 308.585C481.336 307.381 480.763 305.775 480.763 303.766V303.343C480.763 302.007 481.016 300.815 481.522 299.77C482.037 298.715 482.751 297.894 483.664 297.304C484.585 296.707 485.582 296.408 486.652 296.408C488.404 296.408 489.765 296.985 490.736 298.138C491.708 299.292 492.193 300.944 492.193 303.094V304.053H483.066C483.1 305.381 483.486 306.456 484.224 307.278C484.971 308.091 485.918 308.498 487.063 308.498C487.877 308.498 488.566 308.332 489.13 308C489.695 307.668 490.188 307.228 490.612 306.68L492.019 307.776C490.89 309.511 489.197 310.378 486.939 310.378ZM486.652 298.3C485.723 298.3 484.942 298.641 484.312 299.321C483.681 299.994 483.291 300.94 483.141 302.16H489.89V301.986C489.823 300.815 489.508 299.911 488.943 299.271C488.379 298.624 487.615 298.3 486.652 298.3Z" fill="#A7A7A7"/>
<path d="M497.049 296.657L497.124 298.35C498.153 297.055 499.498 296.408 501.158 296.408C504.005 296.408 505.441 298.014 505.466 301.226V310.129H503.163V301.214C503.154 300.243 502.93 299.525 502.49 299.06C502.059 298.595 501.382 298.363 500.461 298.363C499.714 298.363 499.058 298.562 498.493 298.96C497.929 299.359 497.489 299.882 497.174 300.529V310.129H494.87V296.657H497.049Z" fill="#A7A7A7"/>
<path d="M512.065 293.395V296.657H514.58V298.437H512.065V306.792C512.065 307.332 512.177 307.738 512.401 308.012C512.625 308.278 513.007 308.411 513.547 308.411C513.813 308.411 514.178 308.361 514.643 308.261V310.129C514.037 310.295 513.447 310.378 512.875 310.378C511.845 310.378 511.069 310.067 510.546 309.444C510.023 308.822 509.762 307.938 509.762 306.792V298.437H507.309V296.657H509.762V293.395H512.065Z" fill="#A7A7A7"/>
</svg>
