<svg width="846" height="335" viewBox="0 0 846 335" fill="none" xmlns="http://www.w3.org/2000/svg">
<path d="M107 268.5C109.7 268.5 112.3 269.2 114.5 270.3L108.8 261.2C106.3 257.6 101.9 253.9 97.9 253.9H22.9C18.9 253.9 14.5 257 12 261.2L6.3 270.3C8.5 269.1 11.1 268.5 13.8 268.5H107ZM120.7 282.4C119.5 275.9 113.8 270.9 107 270.9H13.9C7.1 270.9 1.4 275.9 0.2 282.4C0.1 283.2 0 284 0 284.9C0 292.6 6.3 298.8 13.9 298.8H107C114.7 298.8 120.9 292.5 120.9 284.9C120.9 284 120.8 283.2 120.7 282.4ZM20.6 285.4C20.6 287.4 19 289.1 16.9 289.1H12.6C10.6 289.1 8.9 287.5 8.9 285.4C8.9 283.4 10.5 281.7 12.6 281.7H16.9C18.9 281.8 20.6 283.4 20.6 285.4ZM37.6 285.4C37.6 287.4 36 289.1 33.9 289.1H29.6C27.6 289.1 25.9 287.5 25.9 285.4C25.9 283.4 27.5 281.7 29.6 281.7H33.9C35.9 281.8 37.6 283.4 37.6 285.4ZM73.9 287.9C72.5 287.9 71.4 286.8 71.4 285.4C71.4 284 72.5 282.9 73.9 282.9C75.3 282.9 76.4 284 76.4 285.4C76.4 286.8 75.2 287.9 73.9 287.9ZM82.3 287.9C80.9 287.9 79.8 286.8 79.8 285.4C79.8 284 80.9 282.9 82.3 282.9C83.7 282.9 84.8 284 84.8 285.4C84.8 286.8 83.7 287.9 82.3 287.9ZM90.8 287.9C89.4 287.9 88.3 286.8 88.3 285.4C88.3 284 89.4 282.9 90.8 282.9C92.2 282.9 93.3 284 93.3 285.4C93.3 286.8 92.2 287.9 90.8 287.9ZM99.3 287.9C97.9 287.9 96.8 286.8 96.8 285.4C96.8 284 97.9 282.9 99.3 282.9C100.7 282.9 101.8 284 101.8 285.4C101.8 286.8 100.6 287.9 99.3 287.9ZM107.7 287.9C106.3 287.9 105.2 286.8 105.2 285.4C105.2 284 106.3 282.9 107.7 282.9C109.1 282.9 110.2 284 110.2 285.4C110.2 286.8 109.1 287.9 107.7 287.9ZM32.2 251.5L31 202.8V202.7C30.9 201.2 29.7 200 28.2 200C26.7 200 25.5 201.2 25.4 202.7V202.8L24.2 251.5H32.2V251.5ZM96.6 251.5L95.4 202.8V202.7C95.3 201.2 94.1 200 92.6 200C91.1 200 89.9 201.2 89.8 202.7V202.8L88.6 251.5H96.6V251.5Z" fill="#434343"/>
<path d="M796.5 229H728.5C723.8 229 720 232.8 720 237.5V277.3C720 282 723.8 285.8 728.5 285.8H751.7V291.7H739.7C737.8 291.7 736.2 293.3 736.2 295.2C736.2 297.1 737.8 298.7 739.7 298.7H781.7C783.6 298.7 785.2 297.1 785.2 295.2C785.2 293.3 783.6 291.7 781.7 291.7H769.7V285.8H796.5C801.2 285.8 805 282 805 277.3V237.5C805 232.8 801.2 229 796.5 229ZM800 277.3C800 279.2 798.4 280.8 796.5 280.8H728.5C726.6 280.8 725 279.2 725 277.3V237.5C725 235.6 726.6 234 728.5 234H796.5C798.4 234 800 235.6 800 237.5V277.3ZM839 229H816.3C812.5 229 809.3 232.2 809.3 236V290.2C809.3 294 812.5 297.2 816.3 297.2H839C842.8 297.2 846 294 846 290.2V236C846 232.1 842.8 229 839 229ZM827.2 285.9C824.5 285.9 822.3 283.7 822.3 281C822.3 278.3 824.5 276.1 827.2 276.1C829.9 276.1 832.1 278.3 832.1 281C832.1 283.7 829.9 285.9 827.2 285.9ZM841.2 252.3C841.2 254 839.8 255.3 838.2 255.3H817.1C815.4 255.3 814.1 254 814.1 252.3V250.8C814.1 249.1 815.4 247.8 817.1 247.8H838.2C839.8 247.8 841.2 249.1 841.2 250.8V252.3ZM841.2 240.3C841.2 242 839.8 243.3 838.2 243.3H817.1C815.4 243.3 814.1 242 814.1 240.3V238.8C814.1 237.1 815.4 235.8 817.1 235.8H838.2C839.8 235.8 841.2 237.1 841.2 238.8V240.3Z" fill="#444444"/>
<path d="M494 268.5C496.7 268.5 499.3 269.2 501.5 270.3L495.8 261.2C493.3 257.6 488.9 253.9 484.9 253.9H409.9C405.9 253.9 401.5 257 399 261.2L393.3 270.3C395.5 269.1 398.1 268.5 400.8 268.5H494ZM507.7 282.4C506.5 275.9 500.8 270.9 494 270.9H400.9C394.1 270.9 388.4 275.9 387.2 282.4C387.1 283.2 387 284 387 284.9C387 292.6 393.3 298.8 400.9 298.8H494C501.7 298.8 507.9 292.5 507.9 284.9C507.9 284 507.8 283.2 507.7 282.4ZM407.6 285.4C407.6 287.4 406 289.1 403.9 289.1H399.6C397.6 289.1 395.9 287.5 395.9 285.4C395.9 283.4 397.5 281.7 399.6 281.7H403.9C405.9 281.8 407.6 283.4 407.6 285.4ZM424.6 285.4C424.6 287.4 423 289.1 420.9 289.1H416.6C414.6 289.1 412.9 287.5 412.9 285.4C412.9 283.4 414.5 281.7 416.6 281.7H420.9C422.9 281.8 424.6 283.4 424.6 285.4ZM460.9 287.9C459.5 287.9 458.4 286.8 458.4 285.4C458.4 284 459.5 282.9 460.9 282.9C462.3 282.9 463.4 284 463.4 285.4C463.4 286.8 462.2 287.9 460.9 287.9ZM469.3 287.9C467.9 287.9 466.8 286.8 466.8 285.4C466.8 284 467.9 282.9 469.3 282.9C470.7 282.9 471.8 284 471.8 285.4C471.8 286.8 470.7 287.9 469.3 287.9ZM477.8 287.9C476.4 287.9 475.3 286.8 475.3 285.4C475.3 284 476.4 282.9 477.8 282.9C479.2 282.9 480.3 284 480.3 285.4C480.3 286.8 479.2 287.9 477.8 287.9ZM486.3 287.9C484.9 287.9 483.8 286.8 483.8 285.4C483.8 284 484.9 282.9 486.3 282.9C487.7 282.9 488.8 284 488.8 285.4C488.8 286.8 487.6 287.9 486.3 287.9ZM494.7 287.9C493.3 287.9 492.2 286.8 492.2 285.4C492.2 284 493.3 282.9 494.7 282.9C496.1 282.9 497.2 284 497.2 285.4C497.2 286.8 496.1 287.9 494.7 287.9ZM419.2 251.5L418 202.8V202.7C417.9 201.2 416.7 200 415.2 200C413.7 200 412.5 201.2 412.4 202.7V202.8L411.2 251.5H419.2V251.5ZM483.6 251.5L482.4 202.8V202.7C482.3 201.2 481.1 200 479.6 200C478.1 200 476.9 201.2 476.8 202.7V202.8L475.6 251.5H483.6V251.5Z" fill="#434343"/>
<path d="M816.9 58.4L816.6 57.8C815 54.5 813.7 51.6 810.4 50.7C812 49.1 813.1 46.8 813.1 44.3V8.5C813.1 3.8 809.3 0 804.6 0H736.6C731.9 0 728.1 3.8 728.1 8.5V44.3C728.1 46.9 729.2 49.1 731.1 50.6C727.3 51.6 725.7 55.2 724.3 58.4L720 67.7V68.2C720 71.1 720 77.1 727.5 77.1H815.6C819.5 77.1 821.4 74.1 821.4 68.2V67.6L816.9 58.4V58.4ZM788.2 58V59C788.2 60.1 787.3 61 786.2 61H784.3C783.2 61 782.3 60.1 782.3 59V58C782.3 56.9 783.2 56 784.3 56H786.2C787.3 56 788.2 56.9 788.2 58ZM780.3 57.9V58.9C780.3 60 779.4 60.9 778.3 60.9H776.4C775.3 60.9 774.4 60 774.4 58.9V57.9C774.4 56.8 775.3 55.9 776.4 55.9H778.3C779.4 55.9 780.3 56.8 780.3 57.9ZM772.3 57.9V58.9C772.3 60 771.4 60.9 770.3 60.9H768.4C767.3 60.9 766.4 60 766.4 58.9V57.9C766.4 56.8 767.3 55.9 768.4 55.9H770.3C771.4 55.9 772.3 56.8 772.3 57.9ZM764.3 57.9V58.9C764.3 60 763.4 60.9 762.3 60.9H760.4C759.3 60.9 758.4 60 758.4 58.9V57.9C758.4 56.8 759.3 55.9 760.4 55.9H762.3C763.4 55.9 764.3 56.8 764.3 57.9ZM756.3 57.9V58.9C756.3 60 755.4 60.9 754.3 60.9H752.4C751.3 60.9 750.4 60 750.4 58.9V57.9C750.4 56.8 751.3 55.9 752.4 55.9H754.3C755.4 55.9 756.3 56.8 756.3 57.9ZM733.1 8.5C733.1 6.6 734.7 5 736.6 5H804.6C806.5 5 808.1 6.6 808.1 8.5V44.3C808.1 46.3 806.5 47.8 805.6 47.8H737.6C734.9 47.8 733.1 46.4 733.1 44.3V8.5ZM736.2 67C736.2 68.1 735.3 69 734.2 69H732.3C731.2 69 730.3 68.1 730.3 67V66C730.3 64.9 731.2 64 732.3 64H734.2C735.3 64 736.2 64.9 736.2 66V67ZM736.4 60.9C735.3 60.9 734.4 60 734.4 58.9V57.9C734.4 56.8 735.3 55.9 736.4 55.9H738.3C739.4 55.9 740.3 56.8 740.3 57.9V58.9C740.3 60 739.4 60.9 738.3 60.9H736.4ZM744.2 67C744.2 68.1 743.3 69 742.2 69H740.3C739.2 69 738.3 68.1 738.3 67V66C738.3 64.9 739.2 64 740.3 64H742.2C743.3 64 744.2 64.9 744.2 66V67ZM744.4 60.9C743.3 60.9 742.4 60 742.4 58.9V57.9C742.4 56.8 743.3 55.9 744.4 55.9H746.3C747.4 55.9 748.3 56.8 748.3 57.9V58.9C748.3 60 747.4 60.9 746.3 60.9H744.4ZM792.2 67C792.2 68.1 791.3 69 790.2 69H748.3C747.2 69 746.3 68.1 746.3 67V66C746.3 64.9 747.2 64 748.3 64H790.2C791.3 64 792.2 64.9 792.2 66V67ZM792.3 61C791.2 61 790.3 60.1 790.3 59V58C790.3 56.9 791.2 56 792.3 56H794.2C795.3 56 796.2 56.9 796.2 58V59C796.2 60.1 795.3 61 794.2 61H792.3ZM800.2 67C800.2 68.1 799.3 69 798.2 69H796.3C795.2 69 794.3 68.1 794.3 67V66C794.3 64.9 795.2 64 796.3 64H798.2C799.3 64 800.2 64.9 800.2 66V67ZM800.3 61C799.2 61 798.3 60.1 798.3 59V58C798.3 56.9 799.2 56 800.3 56H802.2C803.3 56 804.2 56.9 804.2 58V59C804.2 60.1 803.3 61 802.2 61H800.3ZM808.2 67C808.2 68.1 807.3 69 806.2 69H804.3C803.2 69 802.3 68.1 802.3 67V66C802.3 64.9 803.2 64 804.3 64H806.2C807.3 64 808.2 64.9 808.2 66V67Z" fill="#444444"/>
<path d="M583 279.5H705M193 279.5H315H193Z" stroke="#B7B7B7" stroke-width="3"/>
<path d="M707.6 97C708.4 97 709.1 96.3 709.1 95.5C709.1 94.7 708.4 94 707.6 94C698 94 690.1 86.2 690.1 76.5C690.1 75.7 689.4 75 688.6 75C687.8 75 687.1 75.7 687.1 76.5C687.1 87.8 696.3 97 707.6 97ZM707.6 111.1C688.5 111.1 673 95.6 673 76.5C673 75.7 672.3 75 671.5 75C670.7 75 670 75.7 670 76.5C670 97.2 686.9 114.1 707.6 114.1C708.4 114.1 709.1 113.4 709.1 112.6C709.1 111.8 708.4 111.1 707.6 111.1Z" fill="#B7B7B7"/>
<path d="M707.6 128.2C679.1 128.2 656 105 656 76.6C656 75.8 655.3 75.1 654.5 75.1C653.7 75.1 653 75.8 653 76.6C653 106.7 677.5 131.2 707.6 131.2C708.4 131.2 709.1 130.5 709.1 129.7C709.1 128.9 708.4 128.2 707.6 128.2ZM481.5 178.2C480.7 178.2 480 178.9 480 179.7C480 180.5 480.7 181.2 481.5 181.2C491.1 181.2 499 189 499 198.7C499 199.5 499.7 200.2 500.5 200.2C501.3 200.2 502 199.5 502 198.7C502 187.4 492.8 178.2 481.5 178.2ZM481.5 164.1C500.6 164.1 516.1 179.6 516.1 198.7C516.1 199.5 516.8 200.2 517.6 200.2C518.4 200.2 519.1 199.5 519.1 198.7C519.1 178 502.2 161.1 481.5 161.1C480.7 161.1 480 161.8 480 162.6C480 163.4 480.7 164.1 481.5 164.1Z" fill="#B7B7B7"/>
<path d="M481.5 147C510 147 533.1 170.2 533.1 198.6C533.1 199.4 533.8 200.1 534.6 200.1C535.4 200.1 536.1 199.4 536.1 198.6C536.1 168.5 511.6 144 481.5 144C480.7 144 480 144.7 480 145.5C480 146.3 480.7 147 481.5 147Z" fill="#B7B7B7"/>
<path d="M134.596 287.007H143.355V289H132.146V270.516H134.596V287.007ZM156.597 284.176H148.853L147.113 289H144.6L151.658 270.516H153.791L160.862 289H158.361L156.597 284.176V284.176ZM149.589 282.17H155.873L152.725 273.524L149.589 282.17ZM177.557 289H175.106L165.801 274.756V289H163.351V270.516H165.801L175.132 284.823V270.516H177.557V289ZM331.596 287.007H340.355V289H329.146V270.516H331.596V287.007ZM353.597 284.176H345.853L344.113 289H341.6L348.658 270.516H350.791L357.862 289H355.361L353.597 284.176V284.176ZM346.589 282.17H352.873L349.725 273.524L346.589 282.17V282.17ZM374.557 289H372.106L362.801 274.756V289H360.351V270.516H362.801L372.132 284.823V270.516H374.557V289ZM524.596 287.007H533.355V289H522.146V270.516H524.596V287.007V287.007ZM546.597 284.176H538.853L537.113 289H534.6L541.658 270.516H543.791L550.862 289H548.361L546.597 284.176ZM539.589 282.17H545.873L542.725 273.524L539.589 282.17ZM567.557 289H565.106L555.801 274.756V289H553.351V270.516H555.801L565.132 284.823V270.516H567.557V289Z" fill="#444444"/>
<path d="M427.766 323.397H420.171L418.465 328.129H416L422.923 310H425.015L431.95 328.129H429.497L427.766 323.397ZM420.893 321.43H427.057L423.969 312.951L420.893 321.43Z" fill="#A7A7A7"/>
<path d="M433.481 321.281C433.481 319.181 433.967 317.512 434.938 316.275C435.909 315.03 437.196 314.408 438.798 314.408C440.442 314.408 441.724 314.989 442.646 316.151L442.758 314.657H444.862V327.805C444.862 329.548 444.343 330.922 443.305 331.927C442.276 332.931 440.89 333.433 439.147 333.433C438.176 333.433 437.225 333.226 436.295 332.811C435.366 332.396 434.656 331.827 434.166 331.105L435.362 329.723C436.349 330.943 437.557 331.553 438.985 331.553C440.105 331.553 440.977 331.238 441.6 330.607C442.23 329.976 442.546 329.088 442.546 327.942V326.784C441.625 327.847 440.367 328.378 438.773 328.378C437.196 328.378 435.918 327.743 434.938 326.473C433.967 325.203 433.481 323.472 433.481 321.281ZM435.797 321.542C435.797 323.061 436.109 324.257 436.731 325.128C437.354 325.991 438.225 326.423 439.346 326.423C440.799 326.423 441.865 325.763 442.546 324.443V318.292C441.84 317.006 440.782 316.363 439.371 316.363C438.25 316.363 437.375 316.798 436.744 317.67C436.113 318.542 435.797 319.832 435.797 321.542Z" fill="#A7A7A7"/>
<path d="M453.939 328.378C452.113 328.378 450.627 327.78 449.481 326.585C448.336 325.381 447.763 323.775 447.763 321.766V321.343C447.763 320.007 448.016 318.815 448.522 317.77C449.037 316.715 449.751 315.894 450.664 315.304C451.585 314.707 452.582 314.408 453.652 314.408C455.404 314.408 456.765 314.985 457.736 316.138C458.708 317.292 459.193 318.944 459.193 321.094V322.053H450.066C450.1 323.381 450.486 324.456 451.224 325.278C451.971 326.091 452.918 326.498 454.063 326.498C454.877 326.498 455.566 326.332 456.13 326C456.695 325.668 457.188 325.228 457.612 324.68L459.019 325.776C457.89 327.511 456.197 328.378 453.939 328.378ZM453.652 316.3C452.723 316.3 451.942 316.641 451.312 317.321C450.681 317.994 450.291 318.94 450.141 320.16H456.89V319.986C456.823 318.815 456.508 317.911 455.943 317.271C455.379 316.624 454.615 316.3 453.652 316.3Z" fill="#A7A7A7"/>
<path d="M464.049 314.657L464.124 316.35C465.153 315.055 466.498 314.408 468.158 314.408C471.005 314.408 472.441 316.014 472.466 319.226V328.129H470.163V319.214C470.154 318.243 469.93 317.525 469.49 317.06C469.059 316.595 468.382 316.363 467.461 316.363C466.714 316.363 466.058 316.562 465.493 316.96C464.929 317.359 464.489 317.882 464.174 318.529V328.129H461.87V314.657H464.049Z" fill="#A7A7A7"/>
<path d="M479.065 311.395V314.657H481.58V316.437H479.065V324.792C479.065 325.332 479.177 325.738 479.401 326.012C479.625 326.278 480.007 326.411 480.547 326.411C480.813 326.411 481.178 326.361 481.643 326.261V328.129C481.037 328.295 480.447 328.378 479.875 328.378C478.845 328.378 478.069 328.067 477.546 327.444C477.023 326.822 476.762 325.938 476.762 324.792V316.437H474.309V314.657H476.762V311.395H479.065Z" fill="#A7A7A7"/>
<path d="M18.9578 321.373C18.7336 323.29 18.0239 324.772 16.8286 325.818C15.6416 326.855 14.0603 327.374 12.0847 327.374C9.94312 327.374 8.22485 326.606 6.92993 325.071C5.64331 323.535 5 321.48 5 318.907V317.164C5 315.479 5.29883 313.997 5.89648 312.719C6.50244 311.441 7.35742 310.461 8.46143 309.781C9.56543 309.092 10.8438 308.747 12.2964 308.747C14.2222 308.747 15.7661 309.287 16.9282 310.366C18.0903 311.437 18.7668 312.922 18.9578 314.823H16.5547C16.3472 313.379 15.8948 312.333 15.1975 311.686C14.5085 311.038 13.5415 310.714 12.2964 310.714C10.769 310.714 9.56958 311.279 8.698 312.408C7.83472 313.537 7.40308 315.143 7.40308 317.226V318.982C7.40308 320.949 7.81396 322.514 8.63574 323.676C9.45752 324.838 10.6072 325.419 12.0847 325.419C13.4128 325.419 14.4297 325.12 15.1353 324.523C15.8491 323.917 16.3223 322.867 16.5547 321.373H18.9578Z" fill="#A7A7A7"/>
<path d="M21.2612 320.264C21.2612 318.945 21.5186 317.758 22.0332 316.703C22.5562 315.649 23.2783 314.836 24.1997 314.263C25.1294 313.69 26.1877 313.404 27.3748 313.404C29.2092 313.404 30.6909 314.039 31.8198 315.309C32.957 316.579 33.5256 318.268 33.5256 320.376V320.538C33.5256 321.85 33.2725 323.029 32.7661 324.074C32.2681 325.112 31.55 325.921 30.6121 326.502C29.6824 327.083 28.6116 327.374 27.3997 327.374C25.5735 327.374 24.0918 326.739 22.9546 325.469C21.8257 324.199 21.2612 322.518 21.2612 320.426V320.264ZM23.5771 320.538C23.5771 322.032 23.9216 323.232 24.6106 324.137C25.3079 325.042 26.2375 325.494 27.3997 325.494C28.5701 325.494 29.4998 325.037 30.1887 324.124C30.8777 323.203 31.2222 321.916 31.2222 320.264C31.2222 318.787 30.8694 317.592 30.1638 316.678C29.4666 315.757 28.5369 315.296 27.3748 315.296C26.2375 315.296 25.3203 315.749 24.623 316.654C23.9258 317.558 23.5771 318.853 23.5771 320.538Z" fill="#A7A7A7"/>
<path d="M38.5933 313.653L38.668 315.346C39.6973 314.051 41.042 313.404 42.7021 313.404C45.5493 313.404 46.9854 315.01 47.0103 318.222V327.125H44.7068V318.21C44.6985 317.239 44.4744 316.521 44.0344 316.056C43.6028 315.591 42.9263 315.359 42.0049 315.359C41.2578 315.359 40.6021 315.558 40.0376 315.956C39.4731 316.355 39.0332 316.878 38.7178 317.525V327.125H36.4143V313.653H38.5933Z" fill="#A7A7A7"/>
<path d="M53.6094 310.391V313.653H56.1245V315.433H53.6094V323.788C53.6094 324.328 53.7214 324.734 53.9456 325.008C54.1697 325.274 54.5515 325.407 55.0911 325.407C55.3567 325.407 55.7219 325.357 56.1868 325.257V327.125C55.5808 327.291 54.9915 327.374 54.4187 327.374C53.3894 327.374 52.6133 327.063 52.0903 326.44C51.5674 325.818 51.3059 324.934 51.3059 323.788V315.433H48.853V313.653H51.3059V310.391H53.6094Z" fill="#A7A7A7"/>
<path d="M65.3384 315.72C64.9897 315.662 64.6121 315.633 64.2053 315.633C62.6946 315.633 61.6694 316.276 61.1299 317.562V327.125H58.8264V313.653H61.0676L61.105 315.209C61.8604 314.006 62.9312 313.404 64.3174 313.404C64.7656 313.404 65.106 313.462 65.3384 313.578V315.72Z" fill="#A7A7A7"/>
<path d="M66.6084 320.264C66.6084 318.945 66.8657 317.758 67.3804 316.703C67.9033 315.649 68.6255 314.836 69.5469 314.263C70.4766 313.69 71.5349 313.404 72.7219 313.404C74.5564 313.404 76.0381 314.039 77.167 315.309C78.3042 316.579 78.8728 318.268 78.8728 320.376V320.538C78.8728 321.85 78.6196 323.029 78.1133 324.074C77.6152 325.112 76.8972 325.921 75.9592 326.502C75.0295 327.083 73.9587 327.374 72.7468 327.374C70.9207 327.374 69.439 326.739 68.3018 325.469C67.1729 324.199 66.6084 322.518 66.6084 320.426V320.264ZM68.9243 320.538C68.9243 322.032 69.2688 323.232 69.9578 324.137C70.655 325.042 71.5847 325.494 72.7468 325.494C73.9172 325.494 74.8469 325.037 75.5359 324.124C76.2249 323.203 76.5693 321.916 76.5693 320.264C76.5693 318.787 76.2166 317.592 75.511 316.678C74.8137 315.757 73.884 315.296 72.7219 315.296C71.5847 315.296 70.6675 315.749 69.9702 316.654C69.2729 317.558 68.9243 318.853 68.9243 320.538Z" fill="#A7A7A7"/>
<path d="M84.2642 327.125H81.9607V308H84.2642V327.125Z" fill="#A7A7A7"/>
<path d="M90.4648 327.125H88.1614V308H90.4648V327.125Z" fill="#A7A7A7"/>
<path d="M99.7534 327.374C97.9272 327.374 96.4414 326.776 95.2959 325.581C94.1504 324.377 93.5776 322.771 93.5776 320.762V320.339C93.5776 319.003 93.8308 317.812 94.3372 316.766C94.8518 315.711 95.5657 314.89 96.4788 314.3C97.4001 313.703 98.3962 313.404 99.467 313.404C101.219 313.404 102.58 313.981 103.551 315.135C104.522 316.288 105.008 317.94 105.008 320.09V321.049H95.8811C95.9143 322.377 96.3003 323.452 97.0391 324.274C97.7861 325.087 98.7324 325.494 99.8779 325.494C100.691 325.494 101.38 325.328 101.945 324.996C102.509 324.664 103.003 324.224 103.427 323.676L104.833 324.772C103.705 326.507 102.011 327.374 99.7534 327.374ZM99.467 315.296C98.5374 315.296 97.7571 315.637 97.1262 316.317C96.4954 316.99 96.1052 317.936 95.9558 319.156H102.704V318.982C102.638 317.812 102.323 316.907 101.758 316.268C101.194 315.62 100.43 315.296 99.467 315.296Z" fill="#A7A7A7"/>
<path d="M114.197 315.72C113.848 315.662 113.47 315.633 113.064 315.633C111.553 315.633 110.528 316.276 109.988 317.562V327.125H107.685V313.653H109.926L109.963 315.209C110.719 314.006 111.79 313.404 113.176 313.404C113.624 313.404 113.964 313.462 114.197 313.578V315.72Z" fill="#A7A7A7"/>
</svg>
