<svg width="975" height="536" viewBox="0 0 975 536" fill="none" xmlns="http://www.w3.org/2000/svg">
<g clip-path="url(#clip0_1_2)">
<path d="M523 321.5C525.7 321.5 528.3 322.2 530.5 323.3L524.8 314.2C522.3 310.6 517.9 306.9 513.9 306.9H438.9C434.9 306.9 430.5 310 428 314.2L422.3 323.3C424.5 322.1 427.1 321.5 429.8 321.5H523ZM536.7 335.4C535.5 328.9 529.8 323.9 523 323.9H429.9C423.1 323.9 417.4 328.9 416.2 335.4C416.1 336.2 416 337 416 337.9C416 345.6 422.3 351.8 429.9 351.8H523C530.7 351.8 536.9 345.5 536.9 337.9C536.9 337 536.8 336.2 536.7 335.4ZM436.6 338.4C436.6 340.4 435 342.1 432.9 342.1H428.6C426.6 342.1 424.9 340.5 424.9 338.4C424.9 336.4 426.5 334.7 428.6 334.7H432.9C434.9 334.8 436.6 336.4 436.6 338.4ZM453.6 338.4C453.6 340.4 452 342.1 449.9 342.1H445.6C443.6 342.1 441.9 340.5 441.9 338.4C441.9 336.4 443.5 334.7 445.6 334.7H449.9C451.9 334.8 453.6 336.4 453.6 338.4ZM489.9 340.9C488.5 340.9 487.4 339.8 487.4 338.4C487.4 337 488.5 335.9 489.9 335.9C491.3 335.9 492.4 337 492.4 338.4C492.4 339.8 491.2 340.9 489.9 340.9ZM498.3 340.9C496.9 340.9 495.8 339.8 495.8 338.4C495.8 337 496.9 335.9 498.3 335.9C499.7 335.9 500.8 337 500.8 338.4C500.8 339.8 499.7 340.9 498.3 340.9ZM506.8 340.9C505.4 340.9 504.3 339.8 504.3 338.4C504.3 337 505.4 335.9 506.8 335.9C508.2 335.9 509.3 337 509.3 338.4C509.3 339.8 508.2 340.9 506.8 340.9ZM515.3 340.9C513.9 340.9 512.8 339.8 512.8 338.4C512.8 337 513.9 335.9 515.3 335.9C516.7 335.9 517.8 337 517.8 338.4C517.8 339.8 516.6 340.9 515.3 340.9ZM523.7 340.9C522.3 340.9 521.2 339.8 521.2 338.4C521.2 337 522.3 335.9 523.7 335.9C525.1 335.9 526.2 337 526.2 338.4C526.2 339.8 525.1 340.9 523.7 340.9ZM448.2 304.5L447 255.8V255.7C446.9 254.2 445.7 253 444.2 253C442.7 253 441.5 254.2 441.4 255.7V255.8L440.2 304.5H448.2ZM512.6 304.5L511.4 255.8V255.7C511.3 254.2 510.1 253 508.6 253C507.1 253 505.9 254.2 505.8 255.7V255.8L504.6 304.5H512.6Z" fill="#434343"/>
<path d="M30.1 316.2H26.4V336H30.1V316.2ZM44.8 323.2C44.4 322.7 43.9 322.4 43.3 322.1C42.7 321.8 42 321.7 41.3 321.7C40.8 321.7 40.4 321.7 40 321.8C39.6 321.9 39.2 322 38.9 322.2C38.5 322.4 38.2 322.6 37.9 322.8C37.6 323 37.3 323.3 37 323.6L36.8 322.5C36.7 322.1 36.4 321.9 35.9 321.9H33.8V336H37.2V325.8C37.7 325.3 38.1 325 38.7 324.7C39.2 324.4 39.8 324.3 40.3 324.3C41.1 324.3 41.7 324.5 42.1 325C42.5 325.5 42.7 326.1 42.7 327V335.9H46.1V327C46.1 326.2 46 325.5 45.8 324.8C45.5 324.2 45.2 323.7 44.8 323.2ZM56.2 333.1C56.1 333 56.1 333 56 333C55.9 333 55.8 333 55.8 333.1C55.7 333.1 55.6 333.2 55.5 333.3C55.4 333.4 55.3 333.4 55.1 333.5C55 333.6 54.8 333.6 54.6 333.6C54.2 333.6 53.9 333.5 53.7 333.2C53.5 333 53.4 332.6 53.4 332.2V324.5H57.2V322.1H53.3V317.7H51.5C51.3 317.7 51.1 317.8 51 317.9C50.9 318 50.8 318.1 50.7 318.3L50 322.1L47.7 322.5V323.8C47.7 324 47.8 324.2 47.9 324.3C48 324.4 48.2 324.5 48.4 324.5H49.8V332.4C49.8 333.6 50.1 334.6 50.8 335.3C51.5 336 52.4 336.3 53.6 336.3C54.3 336.3 54.9 336.2 55.6 336C56.2 335.8 56.8 335.5 57.3 335.1L56.3 333.5C56.4 333.2 56.3 333.2 56.2 333.1ZM71.2 329.1C71.3 328.9 71.4 328.6 71.4 328.1C71.4 327.1 71.2 326.2 70.9 325.4C70.6 324.6 70.2 323.9 69.6 323.4C69.1 322.9 68.4 322.4 67.7 322.2C67 321.9 66.1 321.8 65.2 321.8C64.1 321.8 63.2 322 62.4 322.3C61.6 322.7 60.9 323.2 60.3 323.8C59.7 324.4 59.3 325.2 59 326C58.7 326.8 58.5 327.7 58.5 328.7C58.5 329.9 58.7 331 59 332C59.4 332.9 59.8 333.7 60.5 334.4C61.1 335 61.9 335.5 62.7 335.8C63.5 336.1 64.4 336.3 65.4 336.3C65.9 336.3 66.4 336.3 66.9 336.2C67.4 336.1 67.9 336 68.4 335.8C68.9 335.6 69.4 335.4 69.9 335.1C70.4 334.8 70.8 334.4 71.2 334L70.2 332.8C70.1 332.6 69.9 332.5 69.6 332.5C69.4 332.5 69.2 332.6 68.9 332.7C68.7 332.8 68.4 333 68.1 333.1C67.8 333.3 67.5 333.4 67.1 333.5C66.7 333.6 66.2 333.7 65.7 333.7C65.2 333.7 64.7 333.6 64.2 333.4C63.7 333.2 63.4 333 63 332.6C62.7 332.3 62.4 331.8 62.2 331.3C62 330.8 61.9 330.2 61.8 329.4H70.5C70.9 329.4 71.1 329.3 71.2 329.1ZM61.9 327.4C62.1 326.4 62.4 325.6 63 325C63.6 324.4 64.3 324.2 65.3 324.2C65.8 324.2 66.2 324.3 66.6 324.5C67 324.7 67.3 324.9 67.5 325.2C67.7 325.5 67.9 325.8 68.1 326.2C68.2 326.6 68.3 327 68.3 327.4H61.9ZM78.7 322.4C78.1 322.9 77.6 323.5 77.1 324.4L76.9 322.8C76.9 322.5 76.8 322.3 76.6 322.1C76.5 322 76.2 321.9 75.9 321.9H73.9V336H77.3V327.3C77.5 326.9 77.6 326.6 77.8 326.3C78 326 78.2 325.8 78.4 325.6C78.6 325.4 78.9 325.2 79.2 325.1C79.5 325 79.8 324.9 80.2 324.9C80.5 324.9 80.7 324.9 81 325C81.3 325 81.5 325.1 81.6 325.1C81.7 325.1 81.9 325.1 81.9 325C82 324.9 82.1 324.8 82.1 324.7L82.3 322.2C81.9 321.9 81.4 321.8 80.7 321.8C80 321.7 79.3 321.9 78.7 322.4ZM95.2 323.2C94.8 322.7 94.3 322.4 93.7 322.1C93.1 321.8 92.4 321.7 91.7 321.7C91.2 321.7 90.8 321.7 90.4 321.8C90 321.9 89.6 322 89.3 322.2C88.9 322.4 88.6 322.6 88.3 322.8C88 323 87.7 323.3 87.4 323.6L87.2 322.5C87.1 322.1 86.8 321.9 86.3 321.9H84.2V336H87.6V325.8C88.1 325.3 88.5 325 89.1 324.7C89.6 324.4 90.2 324.3 90.7 324.3C91.5 324.3 92.1 324.5 92.5 325C92.9 325.5 93.1 326.1 93.1 327V335.9H96.5V327C96.5 326.2 96.4 325.5 96.2 324.8C95.9 324.2 95.6 323.7 95.2 323.2ZM111.5 329.1C111.6 328.9 111.7 328.6 111.7 328.1C111.7 327.1 111.5 326.2 111.2 325.4C110.9 324.6 110.5 323.9 109.9 323.4C109.4 322.9 108.7 322.4 108 322.2C107.3 321.9 106.4 321.8 105.5 321.8C104.4 321.8 103.5 322 102.7 322.3C101.9 322.7 101.2 323.2 100.6 323.8C100 324.4 99.6 325.2 99.3 326C99 326.8 98.8 327.7 98.8 328.7C98.8 329.9 99 331 99.3 332C99.7 332.9 100.1 333.7 100.8 334.4C101.4 335 102.2 335.5 103 335.8C103.8 336.1 104.7 336.3 105.7 336.3C106.2 336.3 106.7 336.3 107.2 336.2C107.7 336.1 108.2 336 108.7 335.8C109.2 335.6 109.7 335.4 110.2 335.1C110.7 334.8 111.1 334.4 111.5 334L110.5 332.8C110.4 332.6 110.2 332.5 109.9 332.5C109.7 332.5 109.5 332.6 109.2 332.7C109 332.8 108.7 333 108.4 333.1C108.1 333.3 107.8 333.4 107.4 333.5C107 333.6 106.5 333.7 106 333.7C105.5 333.7 105 333.6 104.5 333.4C104 333.2 103.7 333 103.3 332.6C103 332.3 102.7 331.8 102.5 331.3C102.3 330.8 102.2 330.2 102.1 329.4H110.8C111.2 329.4 111.4 329.3 111.5 329.1ZM102.2 327.4C102.4 326.4 102.7 325.6 103.3 325C103.9 324.4 104.6 324.2 105.6 324.2C106.1 324.2 106.5 324.3 106.9 324.5C107.3 324.7 107.6 324.9 107.8 325.2C108 325.5 108.2 325.8 108.4 326.2C108.5 326.6 108.6 327 108.6 327.4H102.2ZM121.2 333.1C121.1 333 121.1 333 121 333C120.9 333 120.8 333 120.8 333.1C120.7 333.1 120.6 333.2 120.5 333.3C120.4 333.4 120.3 333.4 120.1 333.5C120 333.6 119.8 333.6 119.6 333.6C119.2 333.6 118.9 333.5 118.7 333.2C118.5 333 118.4 332.6 118.4 332.2V324.5H122.2V322.1H118.3V317.7H116.5C116.3 317.7 116.1 317.8 116 317.9C115.9 318 115.8 318.1 115.7 318.3L115 322.1L112.7 322.5V323.8C112.7 324 112.8 324.2 112.9 324.3C113 324.4 113.2 324.5 113.4 324.5H114.8V332.4C114.8 333.6 115.1 334.6 115.8 335.3C116.5 336 117.4 336.3 118.6 336.3C119.3 336.3 119.9 336.2 120.6 336C121.2 335.8 121.8 335.5 122.3 335.1L121.3 333.5C121.3 333.2 121.3 333.2 121.2 333.1Z" fill="#444444"/>
<path d="M127.3 303.3C123.4 285.4 107.5 272 88.5 272C74.3 272 61.8 279.5 54.8 290.7C51.6 288.7 47.8 287.5 43.7 287.5C34.2 287.5 26.1 293.8 23.5 302.5C10.4 303.2 0 314 0 327.3C0 341 11.1 352.1 24.8 352.1H121.1C134.8 352.1 145.9 341 145.9 327.3C145.8 315.8 138 306.1 127.3 303.3ZM121 347.2H24.7C13.8 347.2 4.9 338.3 4.9 327.4C4.9 316.8 13.2 308.1 23.7 307.6L27.2 307.4L28.2 304C30.3 297.2 36.5 292.6 43.7 292.6C46.7 292.6 49.6 293.4 52.1 295L56.3 297.6L58.9 293.4C65.3 283.1 76.3 277 88.4 277C104.7 277 118.9 288.5 122.3 304.4L122.9 307.4L125.9 308.2C134.6 310.5 140.7 318.4 140.7 327.4C140.8 338.3 132 347.2 121 347.2ZM956.3 308.3C952.4 290.4 936.5 277 917.5 277C903.3 277 890.8 284.5 883.8 295.7C880.6 293.7 876.8 292.5 872.7 292.5C863.2 292.5 855.1 298.8 852.5 307.5C839.4 308.2 829 319 829 332.3C829 346 840.1 357.1 853.8 357.1H950.1C963.8 357.1 974.9 346 974.9 332.3C974.8 320.8 967 311.1 956.3 308.3ZM950 352.2H853.7C842.8 352.2 833.9 343.3 833.9 332.4C833.9 321.8 842.2 313.1 852.7 312.6L856.2 312.4L857.2 309C859.3 302.2 865.5 297.6 872.7 297.6C875.7 297.6 878.6 298.4 881.1 300L885.3 302.6L887.9 298.4C894.3 288.1 905.3 282 917.4 282C933.7 282 947.9 293.5 951.3 309.4L951.9 312.4L954.9 313.2C963.6 315.5 969.7 323.4 969.7 332.4C969.8 343.3 961 352.2 950 352.2Z" fill="#444444"/>
<path d="M877.882 320.805L882.812 334.727L887.717 320.805H892.911V340H888.943V334.753L889.338 325.696L884.157 340H881.441L876.273 325.709L876.669 334.753V340H872.714V320.805H877.882ZM902.68 340.264C900.588 340.264 898.883 339.622 897.565 338.339C896.255 337.056 895.601 335.346 895.601 333.21V332.841C895.601 331.409 895.877 330.13 896.431 329.005C896.985 327.871 897.767 327.001 898.778 326.395C899.797 325.779 900.958 325.472 902.258 325.472C904.209 325.472 905.743 326.087 906.859 327.317C907.984 328.548 908.547 330.292 908.547 332.551V334.107H899.463C899.586 335.039 899.956 335.786 900.571 336.348C901.195 336.911 901.981 337.192 902.931 337.192C904.398 337.192 905.545 336.66 906.372 335.597L908.244 337.693C907.672 338.501 906.899 339.134 905.923 339.591C904.948 340.04 903.867 340.264 902.68 340.264ZM902.245 328.557C901.489 328.557 900.874 328.811 900.399 329.321C899.934 329.831 899.635 330.561 899.503 331.51H904.803V331.207C904.785 330.363 904.557 329.712 904.117 329.255C903.678 328.79 903.054 328.557 902.245 328.557ZM918.448 336.058C918.448 335.592 918.215 335.228 917.749 334.964C917.292 334.691 916.554 334.45 915.534 334.239C912.142 333.527 910.445 332.085 910.445 329.915C910.445 328.649 910.968 327.594 912.014 326.75C913.069 325.898 914.444 325.472 916.141 325.472C917.951 325.472 919.397 325.898 920.478 326.75C921.568 327.603 922.113 328.71 922.113 330.073H918.303C918.303 329.528 918.127 329.08 917.775 328.728C917.424 328.368 916.875 328.187 916.127 328.187C915.486 328.187 914.989 328.332 914.638 328.623C914.286 328.913 914.11 329.282 914.11 329.73C914.11 330.152 914.308 330.495 914.704 330.758C915.108 331.013 915.785 331.237 916.734 331.431C917.683 331.615 918.483 331.826 919.133 332.063C921.146 332.802 922.152 334.081 922.152 335.9C922.152 337.201 921.594 338.255 920.478 339.064C919.362 339.864 917.92 340.264 916.154 340.264C914.958 340.264 913.895 340.053 912.963 339.631C912.041 339.2 911.315 338.616 910.788 337.877C910.261 337.13 909.997 336.326 909.997 335.465H913.609C913.645 336.142 913.895 336.66 914.361 337.02C914.827 337.381 915.451 337.561 916.233 337.561C916.962 337.561 917.512 337.425 917.881 337.152C918.259 336.871 918.448 336.506 918.448 336.058ZM928.335 327.291C929.346 326.078 930.616 325.472 932.146 325.472C935.239 325.472 936.808 327.269 936.852 330.864V340H933.042V330.969C933.042 330.152 932.866 329.55 932.515 329.163C932.163 328.768 931.579 328.57 930.761 328.57C929.645 328.57 928.836 329 928.335 329.862V340H924.525V319.75H928.335V327.291Z" fill="#444444"/>
<path d="M802.166 303.434C802.373 304.206 803.231 304.701 804.003 304.494C804.776 304.287 805.271 303.43 805.064 302.657C802.579 293.384 808.069 283.735 817.438 281.224C818.211 281.017 818.706 280.16 818.499 279.387C818.292 278.614 817.435 278.119 816.662 278.326C805.747 281.251 799.242 292.519 802.166 303.434ZM788.547 307.083C783.603 288.634 794.563 269.65 813.013 264.707C813.785 264.5 814.28 263.642 814.073 262.87C813.866 262.097 813.009 261.602 812.236 261.809C792.242 267.166 780.291 287.865 785.649 307.859C785.856 308.632 786.713 309.127 787.486 308.92C788.259 308.713 788.754 307.856 788.547 307.083Z" fill="#B7B7B7"/>
<path d="M772.029 311.509C764.653 283.98 781.084 255.662 808.516 248.312C809.289 248.105 809.784 247.247 809.577 246.475C809.37 245.702 808.512 245.207 807.74 245.414C778.665 253.205 761.341 283.211 769.132 312.285C769.339 313.058 770.196 313.553 770.969 313.346C771.741 313.139 772.236 312.281 772.029 311.509Z" fill="#B7B7B7"/>
<path d="M432.094 155.922C429.521 155.182 427.646 154.276 426.469 153.203C425.302 152.12 424.719 150.786 424.719 149.203C424.719 147.411 425.432 145.932 426.859 144.766C428.297 143.589 430.161 143 432.453 143C434.016 143 435.406 143.302 436.625 143.906C437.854 144.51 438.802 145.344 439.469 146.406C440.139 147.444 440.491 148.655 440.484 149.891H437.469C437.469 148.516 437.031 147.438 436.156 146.656C435.281 145.865 434.047 145.469 432.453 145.469C430.974 145.469 429.818 145.797 428.984 146.453C428.161 147.099 427.75 148 427.75 149.156C427.75 150.083 428.141 150.87 428.922 151.516C429.714 152.151 431.052 152.734 432.938 153.266C434.833 153.797 436.312 154.385 437.375 155.031C438.448 155.667 439.24 156.411 439.75 157.266C440.271 158.12 440.531 159.125 440.531 160.281C440.531 162.125 439.812 163.604 438.375 164.719C436.938 165.823 435.016 166.375 432.609 166.375C431.047 166.375 429.589 166.078 428.234 165.484C426.88 164.88 425.833 164.057 425.094 163.016C424.365 161.974 424 160.792 424 159.469H427.016C427.016 160.844 427.521 161.932 428.531 162.734C429.552 163.526 430.911 163.922 432.609 163.922C434.193 163.922 435.406 163.599 436.25 162.953C437.094 162.307 437.516 161.427 437.516 160.312C437.516 159.198 437.125 158.339 436.344 157.734C435.562 157.12 434.146 156.516 432.094 155.922ZM451.094 155.922C448.521 155.182 446.646 154.276 445.469 153.203C444.302 152.12 443.719 150.786 443.719 149.203C443.719 147.411 444.432 145.932 445.859 144.766C447.297 143.589 449.161 143 451.453 143C453.016 143 454.406 143.302 455.625 143.906C456.854 144.51 457.802 145.344 458.469 146.406C459.139 147.444 459.491 148.655 459.484 149.891H456.469C456.469 148.516 456.031 147.438 455.156 146.656C454.281 145.865 453.047 145.469 451.453 145.469C449.974 145.469 448.818 145.797 447.984 146.453C447.161 147.099 446.75 148 446.75 149.156C446.75 150.083 447.141 150.87 447.922 151.516C448.714 152.151 450.052 152.734 451.938 153.266C453.833 153.797 455.312 154.385 456.375 155.031C457.448 155.667 458.24 156.411 458.75 157.266C459.271 158.12 459.531 159.125 459.531 160.281C459.531 162.125 458.812 163.604 457.375 164.719C455.938 165.823 454.016 166.375 451.609 166.375C450.047 166.375 448.589 166.078 447.234 165.484C445.88 164.88 444.833 164.057 444.094 163.016C443.365 161.974 443 160.792 443 159.469H446.016C446.016 160.844 446.521 161.932 447.531 162.734C448.552 163.526 449.911 163.922 451.609 163.922C453.193 163.922 454.406 163.599 455.25 162.953C456.094 162.307 456.516 161.427 456.516 160.312C456.516 159.198 456.125 158.339 455.344 157.734C454.562 157.12 453.146 156.516 451.094 155.922ZM466.609 166.062H463.609V143.312H466.609V166.062ZM472.109 166.062V143.312H478.531C480.51 143.312 482.26 143.75 483.781 144.625C485.302 145.5 486.474 146.745 487.297 148.359C488.13 149.974 488.552 151.828 488.562 153.922V155.375C488.562 157.521 488.146 159.401 487.312 161.016C486.49 162.63 485.307 163.87 483.766 164.734C482.234 165.599 480.448 166.042 478.406 166.062H472.109ZM475.109 145.781V163.609H478.266C480.578 163.609 482.375 162.891 483.656 161.453C484.948 160.016 485.594 157.969 485.594 155.312V153.984C485.594 151.401 484.984 149.396 483.766 147.969C482.557 146.531 480.839 145.802 478.609 145.781H475.109Z" fill="#A7A7A7"/>
<path d="M559.949 346.854H569.383V349H557.311V329.094H559.949V346.854ZM583.643 343.805H575.303L573.43 349H570.723L578.324 329.094H580.621L588.236 349H585.543L583.643 343.805ZM576.096 341.645H582.863L579.473 332.334L576.096 341.645ZM606.215 349H603.576L593.555 333.66V349H590.916V329.094H593.555L603.604 344.502V329.094H606.215V349ZM559.949 383.854H569.383V386H557.311V366.094H559.949V383.854ZM583.643 380.805H575.303L573.43 386H570.723L578.324 366.094H580.621L588.236 386H585.543L583.643 380.805ZM576.096 378.645H582.863L579.473 369.334L576.096 378.645ZM606.215 386H603.576L593.555 370.66V386H590.916V366.094H593.555L603.604 381.502V366.094H606.215V386Z" fill="#434343"/>
<path d="M354.393 342.107L358.263 328.5H360.138L359.054 333.79L354.888 348H353.027L354.393 342.107ZM350.388 328.5L353.469 341.839L354.393 348H352.545L347.817 328.5H350.388ZM365.147 341.826L368.161 328.5H370.746L366.031 348H364.183L365.147 341.826ZM360.42 328.5L364.183 342.107L365.549 348H363.687L359.67 333.79L358.571 328.5H360.42Z" fill="#434343"/>
<path d="M380.241 330.228L373.786 348H371.147L378.58 328.5H380.281L380.241 330.228ZM385.652 348L379.183 330.228L379.143 328.5H380.844L388.304 348H385.652ZM385.317 340.781V342.897H374.362V340.781H385.317Z" fill="#434343"/>
<path d="M405.915 328.5V348H403.317L393.5 332.96V348H390.915V328.5H393.5L403.357 343.58V328.5H405.915Z" fill="#434343"/>
<path d="M617 338.5H824M335 337.5H151H335Z" stroke="#B7B7B7" stroke-width="3"/>
<path d="M640.9 58.4L640.6 57.8C639 54.5 637.7 51.6 634.4 50.7C636 49.1 637.1 46.8 637.1 44.3V8.5C637.1 3.8 633.3 0 628.6 0H560.6C555.9 0 552.1 3.8 552.1 8.5V44.3C552.1 46.9 553.2 49.1 555.1 50.6C551.3 51.6 549.7 55.2 548.3 58.4L544 67.7V68.2C544 71.1 544 77.1 551.5 77.1H639.6C643.5 77.1 645.4 74.1 645.4 68.2V67.6L640.9 58.4ZM612.2 58V59C612.2 60.1 611.3 61 610.2 61H608.3C607.2 61 606.3 60.1 606.3 59V58C606.3 56.9 607.2 56 608.3 56H610.2C611.3 56 612.2 56.9 612.2 58ZM604.3 57.9V58.9C604.3 60 603.4 60.9 602.3 60.9H600.4C599.3 60.9 598.4 60 598.4 58.9V57.9C598.4 56.8 599.3 55.9 600.4 55.9H602.3C603.4 55.9 604.3 56.8 604.3 57.9ZM596.3 57.9V58.9C596.3 60 595.4 60.9 594.3 60.9H592.4C591.3 60.9 590.4 60 590.4 58.9V57.9C590.4 56.8 591.3 55.9 592.4 55.9H594.3C595.4 55.9 596.3 56.8 596.3 57.9ZM588.3 57.9V58.9C588.3 60 587.4 60.9 586.3 60.9H584.4C583.3 60.9 582.4 60 582.4 58.9V57.9C582.4 56.8 583.3 55.9 584.4 55.9H586.3C587.4 55.9 588.3 56.8 588.3 57.9ZM580.3 57.9V58.9C580.3 60 579.4 60.9 578.3 60.9H576.4C575.3 60.9 574.4 60 574.4 58.9V57.9C574.4 56.8 575.3 55.9 576.4 55.9H578.3C579.4 55.9 580.3 56.8 580.3 57.9ZM557.1 8.5C557.1 6.6 558.7 5 560.6 5H628.6C630.5 5 632.1 6.6 632.1 8.5V44.3C632.1 46.3 630.5 47.8 629.6 47.8H561.6C558.9 47.8 557.1 46.4 557.1 44.3V8.5ZM560.2 67C560.2 68.1 559.3 69 558.2 69H556.3C555.2 69 554.3 68.1 554.3 67V66C554.3 64.9 555.2 64 556.3 64H558.2C559.3 64 560.2 64.9 560.2 66V67ZM560.4 60.9C559.3 60.9 558.4 60 558.4 58.9V57.9C558.4 56.8 559.3 55.9 560.4 55.9H562.3C563.4 55.9 564.3 56.8 564.3 57.9V58.9C564.3 60 563.4 60.9 562.3 60.9H560.4ZM568.2 67C568.2 68.1 567.3 69 566.2 69H564.3C563.2 69 562.3 68.1 562.3 67V66C562.3 64.9 563.2 64 564.3 64H566.2C567.3 64 568.2 64.9 568.2 66V67ZM568.4 60.9C567.3 60.9 566.4 60 566.4 58.9V57.9C566.4 56.8 567.3 55.9 568.4 55.9H570.3C571.4 55.9 572.3 56.8 572.3 57.9V58.9C572.3 60 571.4 60.9 570.3 60.9H568.4ZM616.2 67C616.2 68.1 615.3 69 614.2 69H572.3C571.2 69 570.3 68.1 570.3 67V66C570.3 64.9 571.2 64 572.3 64H614.2C615.3 64 616.2 64.9 616.2 66V67ZM616.3 61C615.2 61 614.3 60.1 614.3 59V58C614.3 56.9 615.2 56 616.3 56H618.2C619.3 56 620.2 56.9 620.2 58V59C620.2 60.1 619.3 61 618.2 61H616.3ZM624.2 67C624.2 68.1 623.3 69 622.2 69H620.3C619.2 69 618.3 68.1 618.3 67V66C618.3 64.9 619.2 64 620.3 64H622.2C623.3 64 624.2 64.9 624.2 66V67ZM624.3 61C623.2 61 622.3 60.1 622.3 59V58C622.3 56.9 623.2 56 624.3 56H626.2C627.3 56 628.2 56.9 628.2 58V59C628.2 60.1 627.3 61 626.2 61H624.3ZM632.2 67C632.2 68.1 631.3 69 630.2 69H628.3C627.2 69 626.3 68.1 626.3 67V66C626.3 64.9 627.2 64 628.3 64H630.2C631.3 64 632.2 64.9 632.2 66V67Z" fill="#444444"/>
<path d="M542.6 99C543.4 99 544.1 98.3 544.1 97.5C544.1 96.7 543.4 96 542.6 96C533 96 525.1 88.2 525.1 78.5C525.1 77.7 524.4 77 523.6 77C522.8 77 522.1 77.7 522.1 78.5C522.1 89.8 531.3 99 542.6 99ZM542.6 113.1C523.5 113.1 508 97.6 508 78.5C508 77.7 507.3 77 506.5 77C505.7 77 505 77.7 505 78.5C505 99.2 521.9 116.1 542.6 116.1C543.4 116.1 544.1 115.4 544.1 114.6C544.1 113.8 543.4 113.1 542.6 113.1Z" fill="#B7B7B7"/>
<path d="M542.6 130.2C514.1 130.2 491 107 491 78.6C491 77.8 490.3 77.1 489.5 77.1C488.7 77.1 488 77.8 488 78.6C488 108.7 512.5 133.2 542.6 133.2C543.4 133.2 544.1 132.5 544.1 131.7C544.1 130.9 543.4 130.2 542.6 130.2ZM529.617 239.836C529.051 239.27 528.061 239.27 527.496 239.836C526.93 240.401 526.93 241.391 527.496 241.957C534.284 248.745 534.355 259.847 527.496 266.706C526.93 267.271 526.93 268.261 527.496 268.827C528.061 269.393 529.051 269.393 529.617 268.827C537.607 260.837 537.607 247.826 529.617 239.836ZM539.587 229.865C553.093 243.371 553.093 265.291 539.587 278.797C539.022 279.363 539.022 280.353 539.587 280.918C540.153 281.484 541.143 281.484 541.709 280.918C556.346 266.281 556.346 242.381 541.709 227.744C541.143 227.178 540.153 227.178 539.587 227.744C539.022 228.31 539.022 229.3 539.587 229.865Z" fill="#B7B7B7"/>
<path d="M551.679 217.774C571.831 237.926 571.761 270.665 551.679 290.747C551.113 291.313 551.113 292.303 551.679 292.869C552.245 293.434 553.234 293.434 553.8 292.869C575.084 271.585 575.084 236.936 553.8 215.653C553.234 215.087 552.245 215.087 551.679 215.653C551.113 216.218 551.113 217.208 551.679 217.774ZM429.244 238.791C428.678 239.357 428.678 240.347 429.244 240.912C429.81 241.478 430.799 241.478 431.365 240.912C438.153 234.124 449.255 234.053 456.114 240.912C456.68 241.478 457.67 241.478 458.235 240.912C458.801 240.347 458.801 239.357 458.235 238.791C450.245 230.801 437.234 230.801 429.244 238.791ZM419.274 228.821C432.779 215.315 454.7 215.315 468.205 228.821C468.771 229.387 469.761 229.387 470.327 228.821C470.892 228.255 470.892 227.265 470.327 226.7C455.69 212.062 431.789 212.062 417.152 226.7C416.587 227.265 416.587 228.255 417.152 228.821C417.718 229.387 418.708 229.387 419.274 228.821Z" fill="#B7B7B7"/>
<path d="M407.182 216.729C427.335 196.577 460.074 196.648 480.155 216.729C480.721 217.295 481.711 217.295 482.277 216.729C482.842 216.164 482.842 215.174 482.277 214.608C460.993 193.324 426.345 193.324 405.061 214.608C404.495 215.174 404.495 216.164 405.061 216.729C405.626 217.295 406.616 217.295 407.182 216.729Z" fill="#B7B7B7"/>
<path d="M905.5 466H837.5C832.8 466 829 469.8 829 474.5V514.3C829 519 832.8 522.8 837.5 522.8H860.7V528.7H848.7C846.8 528.7 845.2 530.3 845.2 532.2C845.2 534.1 846.8 535.7 848.7 535.7H890.7C892.6 535.7 894.2 534.1 894.2 532.2C894.2 530.3 892.6 528.7 890.7 528.7H878.7V522.8H905.5C910.2 522.8 914 519 914 514.3V474.5C914 469.8 910.2 466 905.5 466ZM909 514.3C909 516.2 907.4 517.8 905.5 517.8H837.5C835.6 517.8 834 516.2 834 514.3V474.5C834 472.6 835.6 471 837.5 471H905.5C907.4 471 909 472.6 909 474.5V514.3ZM948 466H925.3C921.5 466 918.3 469.2 918.3 473V527.2C918.3 531 921.5 534.2 925.3 534.2H948C951.8 534.2 955 531 955 527.2V473C955 469.1 951.8 466 948 466ZM936.2 522.9C933.5 522.9 931.3 520.7 931.3 518C931.3 515.3 933.5 513.1 936.2 513.1C938.9 513.1 941.1 515.3 941.1 518C941.1 520.7 938.9 522.9 936.2 522.9ZM950.2 489.3C950.2 491 948.8 492.3 947.2 492.3H926.1C924.4 492.3 923.1 491 923.1 489.3V487.8C923.1 486.1 924.4 484.8 926.1 484.8H947.2C948.8 484.8 950.2 486.1 950.2 487.8V489.3ZM950.2 477.3C950.2 479 948.8 480.3 947.2 480.3H926.1C924.4 480.3 923.1 479 923.1 477.3V475.8C923.1 474.1 924.4 472.8 926.1 472.8H947.2C948.8 472.8 950.2 474.1 950.2 475.8V477.3Z" fill="#444444"/>
<path d="M611.391 251.094L617.898 267.336L624.406 251.094H627.811V271H625.186V263.248L625.432 254.881L618.896 271H616.887L610.365 254.922L610.625 263.248V271H608V251.094H611.391ZM638.188 271.273C636.182 271.273 634.551 270.617 633.293 269.305C632.035 267.983 631.406 266.219 631.406 264.014V263.549C631.406 262.081 631.684 260.773 632.24 259.625C632.805 258.467 633.589 257.565 634.592 256.918C635.565 256.274 636.706 255.931 637.873 255.934C639.796 255.934 641.291 256.567 642.357 257.834C643.424 259.101 643.957 260.915 643.957 263.275V264.328H633.936C633.972 265.786 634.396 266.967 635.207 267.869C636.027 268.762 637.066 269.209 638.324 269.209C639.217 269.209 639.974 269.027 640.594 268.662C641.224 268.288 641.777 267.796 642.221 267.213L643.766 268.416C642.526 270.321 640.667 271.273 638.188 271.273ZM637.873 258.012C636.852 258.012 635.995 258.385 635.303 259.133C634.61 259.871 634.182 260.91 634.018 262.25H641.428V262.059C641.355 260.773 641.008 259.78 640.389 259.078C639.769 258.367 638.93 258.012 637.873 258.012ZM655.51 267.076C655.51 266.393 655.25 265.864 654.73 265.49C654.22 265.107 653.322 264.779 652.037 264.506C650.761 264.232 649.745 263.904 648.988 263.521C648.241 263.139 647.685 262.683 647.32 262.154C646.965 261.626 646.787 260.997 646.787 260.268C646.787 259.055 647.298 258.03 648.318 257.191C649.348 256.353 650.661 255.934 652.256 255.934C653.933 255.934 655.291 256.367 656.33 257.232C657.378 258.098 657.902 259.206 657.902 260.555H655.359C655.359 259.862 655.063 259.265 654.471 258.764C653.887 258.262 653.149 258.012 652.256 258.012C651.335 258.012 650.615 258.212 650.096 258.613C649.576 259.014 649.316 259.538 649.316 260.186C649.316 260.796 649.558 261.256 650.041 261.566C650.524 261.876 651.395 262.172 652.652 262.455C653.919 262.738 654.945 263.075 655.729 263.467C656.512 263.859 657.091 264.333 657.465 264.889C657.848 265.436 658.039 266.105 658.039 266.898C658.039 268.22 657.51 269.282 656.453 270.084C655.396 270.877 654.024 271.273 652.338 271.273C651.153 271.273 650.105 271.064 649.193 270.645C648.282 270.225 647.566 269.642 647.047 268.895C646.548 268.176 646.281 267.322 646.281 266.447H648.811C648.856 267.295 649.193 267.969 649.822 268.471C650.46 268.963 651.299 269.209 652.338 269.209C653.295 269.209 654.061 269.018 654.635 268.635C655.218 268.243 655.51 267.723 655.51 267.076ZM663.863 257.998C664.984 256.622 666.443 255.934 668.238 255.934C671.365 255.934 672.941 257.697 672.969 261.225V271H670.439V261.211C670.43 260.145 670.184 259.356 669.701 258.846C669.227 258.335 668.484 258.08 667.473 258.08C666.652 258.08 665.932 258.299 665.312 258.736C664.69 259.177 664.191 259.771 663.863 260.459V271H661.334V250H663.863V257.998ZM689.963 262.127C687.712 261.48 686.071 260.687 685.041 259.748C684.02 258.8 683.51 257.633 683.51 256.248C683.51 254.68 684.134 253.386 685.383 252.365C686.641 251.335 688.272 250.82 690.277 250.82C691.645 250.82 692.861 251.085 693.928 251.613C695.003 252.142 695.833 252.871 696.416 253.801C697.008 254.73 697.305 255.747 697.305 256.85H694.666C694.666 255.646 694.283 254.703 693.518 254.02C692.752 253.327 691.672 252.98 690.277 252.98C688.983 252.98 687.971 253.268 687.242 253.842C686.522 254.407 686.162 255.195 686.162 256.207C686.162 257.018 686.504 257.706 687.188 258.271C687.88 258.827 689.051 259.338 690.701 259.803C692.36 260.268 693.654 260.783 694.584 261.348C695.523 261.904 696.215 262.555 696.662 263.303C697.118 264.05 697.346 264.93 697.346 265.941C697.346 267.555 696.717 268.849 695.459 269.824C694.201 270.79 692.52 271.273 690.414 271.273C689.047 271.273 687.771 271.014 686.586 270.494C685.401 269.965 684.485 269.245 683.838 268.334C683.2 267.422 682.881 266.388 682.881 265.23H685.52C685.52 266.434 685.962 267.386 686.846 268.088C687.739 268.781 688.928 269.127 690.414 269.127C691.799 269.127 692.861 268.844 693.6 268.279C694.338 267.714 694.707 266.944 694.707 265.969C694.707 264.993 694.365 264.242 693.682 263.713C692.998 263.175 691.758 262.646 689.963 262.127ZM706.588 262.127C704.337 261.48 702.696 260.687 701.666 259.748C700.645 258.8 700.135 257.633 700.135 256.248C700.135 254.68 700.759 253.386 702.008 252.365C703.266 251.335 704.897 250.82 706.902 250.82C708.27 250.82 709.486 251.085 710.553 251.613C711.628 252.142 712.458 252.871 713.041 253.801C713.633 254.73 713.93 255.747 713.93 256.85H711.291C711.291 255.646 710.908 254.703 710.143 254.02C709.377 253.327 708.297 252.98 706.902 252.98C705.608 252.98 704.596 253.268 703.867 253.842C703.147 254.407 702.787 255.195 702.787 256.207C702.787 257.018 703.129 257.706 703.812 258.271C704.505 258.827 705.676 259.338 707.326 259.803C708.985 260.268 710.279 260.783 711.209 261.348C712.148 261.904 712.84 262.555 713.287 263.303C713.743 264.05 713.971 264.93 713.971 265.941C713.971 267.555 713.342 268.849 712.084 269.824C710.826 270.79 709.145 271.273 707.039 271.273C705.672 271.273 704.396 271.014 703.211 270.494C702.026 269.965 701.11 269.245 700.463 268.334C699.825 267.422 699.506 266.388 699.506 265.23H702.145C702.145 266.434 702.587 267.386 703.471 268.088C704.364 268.781 705.553 269.127 707.039 269.127C708.424 269.127 709.486 268.844 710.225 268.279C710.963 267.714 711.332 266.944 711.332 265.969C711.332 264.993 710.99 264.242 710.307 263.713C709.623 263.175 708.383 262.646 706.588 262.127ZM720.164 271H717.539V251.094H720.164V271ZM724.977 271V251.094H730.596C732.327 251.094 733.859 251.477 735.189 252.242C736.52 253.008 737.546 254.097 738.266 255.51C738.995 256.922 739.364 258.545 739.373 260.377V261.648C739.373 263.526 739.008 265.171 738.279 266.584C737.559 267.997 736.525 269.081 735.176 269.838C733.836 270.594 732.273 270.982 730.486 271H724.977ZM727.602 253.254V268.853H730.363C732.387 268.853 733.959 268.225 735.08 266.967C736.21 265.709 736.775 263.918 736.775 261.594V260.432C736.775 258.171 736.242 256.417 735.176 255.168C734.118 253.91 732.615 253.272 730.664 253.254H727.602Z" fill="#A7A7A7"/>
<path d="M618 376.5H735.5V491.5H819.5" stroke="#B7B7B7" stroke-width="3"/>
<path d="M441.958 380.373C441.734 382.29 441.024 383.772 439.829 384.818C438.642 385.855 437.06 386.374 435.085 386.374C432.943 386.374 431.225 385.606 429.93 384.071C428.643 382.535 428 380.48 428 377.907V376.164C428 374.479 428.299 372.997 428.896 371.719C429.502 370.441 430.357 369.461 431.461 368.781C432.565 368.092 433.844 367.747 435.296 367.747C437.222 367.747 438.766 368.287 439.928 369.366C441.09 370.437 441.767 371.922 441.958 373.823H439.555C439.347 372.379 438.895 371.333 438.198 370.686C437.509 370.038 436.542 369.714 435.296 369.714C433.769 369.714 432.57 370.279 431.698 371.408C430.835 372.537 430.403 374.143 430.403 376.226V377.982C430.403 379.949 430.814 381.514 431.636 382.676C432.458 383.838 433.607 384.419 435.085 384.419C436.413 384.419 437.43 384.12 438.135 383.523C438.849 382.917 439.322 381.867 439.555 380.373H441.958Z" fill="#A7A7A7"/>
<path d="M444.261 379.264C444.261 377.945 444.519 376.758 445.033 375.703C445.556 374.649 446.278 373.836 447.2 373.263C448.129 372.69 449.188 372.404 450.375 372.404C452.209 372.404 453.691 373.039 454.82 374.309C455.957 375.579 456.526 377.268 456.526 379.376V379.538C456.526 380.85 456.272 382.029 455.766 383.074C455.268 384.112 454.55 384.921 453.612 385.502C452.682 386.083 451.612 386.374 450.4 386.374C448.573 386.374 447.092 385.739 445.955 384.469C444.826 383.199 444.261 381.518 444.261 379.426V379.264ZM446.577 379.538C446.577 381.032 446.922 382.232 447.611 383.137C448.308 384.042 449.238 384.494 450.4 384.494C451.57 384.494 452.5 384.037 453.189 383.124C453.878 382.203 454.222 380.916 454.222 379.264C454.222 377.787 453.869 376.592 453.164 375.678C452.467 374.757 451.537 374.296 450.375 374.296C449.238 374.296 448.32 374.749 447.623 375.654C446.926 376.558 446.577 377.853 446.577 379.538Z" fill="#A7A7A7"/>
<path d="M461.593 372.653L461.668 374.346C462.697 373.051 464.042 372.404 465.702 372.404C468.549 372.404 469.985 374.01 470.01 377.222V386.125H467.707V377.21C467.698 376.239 467.474 375.521 467.034 375.056C466.603 374.591 465.926 374.359 465.005 374.359C464.258 374.359 463.602 374.558 463.038 374.956C462.473 375.355 462.033 375.878 461.718 376.525V386.125H459.414V372.653H461.593Z" fill="#A7A7A7"/>
<path d="M476.609 369.391V372.653H479.125V374.433H476.609V382.788C476.609 383.328 476.721 383.734 476.946 384.008C477.17 384.274 477.552 384.407 478.091 384.407C478.357 384.407 478.722 384.357 479.187 384.257V386.125C478.581 386.291 477.991 386.374 477.419 386.374C476.389 386.374 475.613 386.063 475.09 385.44C474.567 384.818 474.306 383.934 474.306 382.788V374.433H471.853V372.653H474.306V369.391H476.609Z" fill="#A7A7A7"/>
<path d="M488.338 374.72C487.99 374.662 487.612 374.633 487.205 374.633C485.695 374.633 484.669 375.276 484.13 376.562V386.125H481.826V372.653H484.068L484.105 374.209C484.86 373.006 485.931 372.404 487.317 372.404C487.766 372.404 488.106 372.462 488.338 372.578V374.72Z" fill="#A7A7A7"/>
<path d="M489.608 379.264C489.608 377.945 489.866 376.758 490.38 375.703C490.903 374.649 491.625 373.836 492.547 373.263C493.477 372.69 494.535 372.404 495.722 372.404C497.556 372.404 499.038 373.039 500.167 374.309C501.304 375.579 501.873 377.268 501.873 379.376V379.538C501.873 380.85 501.62 382.029 501.113 383.074C500.615 384.112 499.897 384.921 498.959 385.502C498.03 386.083 496.959 386.374 495.747 386.374C493.921 386.374 492.439 385.739 491.302 384.469C490.173 383.199 489.608 381.518 489.608 379.426V379.264ZM491.924 379.538C491.924 381.032 492.269 382.232 492.958 383.137C493.655 384.042 494.585 384.494 495.747 384.494C496.917 384.494 497.847 384.037 498.536 383.124C499.225 382.203 499.569 380.916 499.569 379.264C499.569 377.787 499.217 376.592 498.511 375.678C497.814 374.757 496.884 374.296 495.722 374.296C494.585 374.296 493.667 374.749 492.97 375.654C492.273 376.558 491.924 377.853 491.924 379.538Z" fill="#A7A7A7"/>
<path d="M507.264 386.125H504.961V367H507.264V386.125Z" fill="#A7A7A7"/>
<path d="M513.465 386.125H511.161V367H513.465V386.125Z" fill="#A7A7A7"/>
<path d="M522.753 386.374C520.927 386.374 519.441 385.776 518.296 384.581C517.15 383.377 516.578 381.771 516.578 379.762V379.339C516.578 378.003 516.831 376.812 517.337 375.766C517.852 374.711 518.566 373.89 519.479 373.3C520.4 372.703 521.396 372.404 522.467 372.404C524.219 372.404 525.58 372.981 526.551 374.135C527.522 375.288 528.008 376.94 528.008 379.09V380.049H518.881C518.914 381.377 519.3 382.452 520.039 383.274C520.786 384.087 521.732 384.494 522.878 384.494C523.691 384.494 524.38 384.328 524.945 383.996C525.509 383.664 526.003 383.224 526.427 382.676L527.833 383.772C526.705 385.507 525.011 386.374 522.753 386.374ZM522.467 374.296C521.537 374.296 520.757 374.637 520.126 375.317C519.495 375.99 519.105 376.936 518.956 378.156H525.704V377.982C525.638 376.812 525.323 375.907 524.758 375.268C524.194 374.62 523.43 374.296 522.467 374.296Z" fill="#A7A7A7"/>
<path d="M537.197 374.72C536.848 374.662 536.47 374.633 536.064 374.633C534.553 374.633 533.528 375.276 532.988 376.562V386.125H530.685V372.653H532.926L532.963 374.209C533.719 373.006 534.79 372.404 536.176 372.404C536.624 372.404 536.964 372.462 537.197 372.578V374.72Z" fill="#A7A7A7"/>
</g>
<defs>
<clipPath id="clip0_1_2">
<rect width="975" height="536" fill="white"/>
</clipPath>
</defs>
</svg>
