<svg width="36" height="36" xmlns="http://www.w3.org/2000/svg"><g fill="none" fill-rule="evenodd"><path d="M33.752 35.985L2.265 36a2.25 2.25 0 01-2.25-2.248L0 2.267A2.25 2.25 0 012.248.017L33.735 0a2.25 2.25 0 012.25 2.248L36 33.735a2.25 2.25 0 01-2.248 2.25" fill="#FFF"/><path d="M21.828 18.936l1.192-1.193A7.063 7.063 0 0018 15.665a7.055 7.055 0 00-5.02 2.083l1.193 1.192A5.372 5.372 0 0118 17.352a5.374 5.374 0 013.829 1.584" fill="#4ACBD6"/><path d="M19.959 20.837l1.192-1.194a4.458 4.458 0 00-6.3.004l1.193 1.191a2.774 2.774 0 013.915-.001" fill="#4ACBD6"/><path d="M30.1 25.964a4.131 4.131 0 01-4.125 4.128l-15.938.008a4.133 4.133 0 01-4.129-4.124l-.007-15.938a4.13 4.13 0 014.124-4.129l15.937-.008a4.131 4.131 0 014.129 4.125l.008 15.938zM25.961 3.652l-15.939.008a6.373 6.373 0 00-6.37 6.378l.006 15.94a6.375 6.375 0 006.38 6.37l15.937-.007a6.377 6.377 0 006.372-6.379l-.008-15.937a6.375 6.375 0 00-6.378-6.373z" fill="#4ACBD6"/><path d="M18.577 8.879a.886.886 0 00-1.164 0l-8.937 7.802c-.617.539-.236 1.554.582 1.553h.656l.004 8.56 4.62-.002v-2.024l-2.596.001-.004-6.537v-1.71l6.259-5.464 6.264 5.457.002 1.712.002 6.537-6.646.003-.001-1.435a.385.385 0 01.77 0v.92h1.687v-.922A2.075 2.075 0 0018 21.26c-1.14 0-2.071.93-2.07 2.073v1.435l.002 2.024 1.686-.001 8.671-.005-.004-8.56h.655c.82-.002 1.2-1.016.582-1.553l-8.946-7.794z" fill="#4ACBD6"/></g></svg>